<svg viewBox="0 0 1498 400" xmlns="http://www.w3.org/2000/svg"><g><g><g><g><g><line x1="51.5625" y1="377" x2="46.5625" y2="377" style="visibility: inherit;" fill="rgb(0, 0, 0)" stroke="rgb(204, 204, 204)" stroke-width="1px"></line><line x1="51.5625" y1="350.07142857142856" x2="46.5625" y2="350.07142857142856" style="visibility: inherit;" fill="rgb(0, 0, 0)" stroke="rgb(204, 204, 204)" stroke-width="1px"></line><line x1="51.5625" y1="323.1428571428572" x2="46.5625" y2="323.1428571428572" style="visibility: inherit;" fill="rgb(0, 0, 0)" stroke="rgb(204, 204, 204)" stroke-width="1px"></line><line x1="51.5625" y1="296.2142857142857" x2="46.5625" y2="296.2142857142857" style="visibility: inherit;" fill="rgb(0, 0, 0)" stroke="rgb(204, 204, 204)" stroke-width="1px"></line><line x1="51.5625" y1="269.28571428571433" x2="46.5625" y2="269.28571428571433" style="visibility: inherit;" fill="rgb(0, 0, 0)" stroke="rgb(204, 204, 204)" stroke-width="1px"></line><line x1="51.5625" y1="242.35714285714283" x2="46.5625" y2="242.35714285714283" style="visibility: inherit;" fill="rgb(0, 0, 0)" stroke="rgb(204, 204, 204)" stroke-width="1px"></line><line x1="51.5625" y1="215.42857142857142" x2="46.5625" y2="215.42857142857142" style="visibility: inherit;" fill="rgb(0, 0, 0)" stroke="rgb(204, 204, 204)" stroke-width="1px"></line><line x1="51.5625" y1="188.49999999999991" x2="46.5625" y2="188.49999999999991" style="visibility: inherit;" fill="rgb(0, 0, 0)" stroke="rgb(204, 204, 204)" stroke-width="1px"></line><line x1="51.5625" y1="161.5714285714286" x2="46.5625" y2="161.5714285714286" style="visibility: inherit;" fill="rgb(0, 0, 0)" stroke="rgb(204, 204, 204)" stroke-width="1px"></line><line x1="51.5625" y1="134.64285714285717" x2="46.5625" y2="134.64285714285717" style="visibility: inherit;" fill="rgb(0, 0, 0)" stroke="rgb(204, 204, 204)" stroke-width="1px"></line><line x1="51.5625" y1="107.71428571428571" x2="46.5625" y2="107.71428571428571" style="visibility: inherit;" fill="rgb(0, 0, 0)" stroke="rgb(204, 204, 204)" stroke-width="1px"></line><line x1="51.5625" y1="80.78571428571425" x2="46.5625" y2="80.78571428571425" style="visibility: inherit;" fill="rgb(0, 0, 0)" stroke="rgb(204, 204, 204)" stroke-width="1px"></line><line x1="51.5625" y1="53.85714285714279" x2="46.5625" y2="53.85714285714279" style="visibility: inherit;" fill="rgb(0, 0, 0)" stroke="rgb(204, 204, 204)" stroke-width="1px"></line><line x1="51.5625" y1="26.928571428571292" x2="46.5625" y2="26.928571428571292" style="visibility: inherit;" fill="rgb(0, 0, 0)" stroke="rgb(204, 204, 204)" stroke-width="1px"></line><line x1="51.5625" y1="0" x2="46.5625" y2="0" style="visibility: inherit;" fill="rgb(0, 0, 0)" stroke="rgb(204, 204, 204)" stroke-width="1px"></line></g><g transform="translate(41.5625, 0)"><text x="0" y="377" dx="0em" dy="0.3em" style="text-anchor: end; visibility: hidden; font-family: Roboto, sans-serif; font-size: 12px; font-weight: 200;" fill="rgb(255, 255, 255)" stroke="none" stroke-width="1px">0.66</text><text x="0" y="350.07142857142856" dx="0em" dy="0.3em" style="text-anchor: end; visibility: inherit; font-family: Roboto, sans-serif; font-size: 12px; font-weight: 200;" fill="rgb(255, 255, 255)" stroke="none" stroke-width="1px">0.68</text><text x="0" y="323.1428571428572" dx="0em" dy="0.3em" style="text-anchor: end; visibility: inherit; font-family: Roboto, sans-serif; font-size: 12px; font-weight: 200;" fill="rgb(255, 255, 255)" stroke="none" stroke-width="1px">0.7</text><text x="0" y="296.2142857142857" dx="0em" dy="0.3em" style="text-anchor: end; visibility: inherit; font-family: Roboto, sans-serif; font-size: 12px; font-weight: 200;" fill="rgb(255, 255, 255)" stroke="none" stroke-width="1px">0.72</text><text x="0" y="269.28571428571433" dx="0em" dy="0.3em" style="text-anchor: end; visibility: inherit; font-family: Roboto, sans-serif; font-size: 12px; font-weight: 200;" fill="rgb(255, 255, 255)" stroke="none" stroke-width="1px">0.74</text><text x="0" y="242.35714285714283" dx="0em" dy="0.3em" style="text-anchor: end; visibility: inherit; font-family: Roboto, sans-serif; font-size: 12px; font-weight: 200;" fill="rgb(255, 255, 255)" stroke="none" stroke-width="1px">0.76</text><text x="0" y="215.42857142857142" dx="0em" dy="0.3em" style="text-anchor: end; visibility: inherit; font-family: Roboto, sans-serif; font-size: 12px; font-weight: 200;" fill="rgb(255, 255, 255)" stroke="none" stroke-width="1px">0.78</text><text x="0" y="188.49999999999991" dx="0em" dy="0.3em" style="text-anchor: end; visibility: inherit; font-family: Roboto, sans-serif; font-size: 12px; font-weight: 200;" fill="rgb(255, 255, 255)" stroke="none" stroke-width="1px">0.8</text><text x="0" y="161.5714285714286" dx="0em" dy="0.3em" style="text-anchor: end; visibility: inherit; font-family: Roboto, sans-serif; font-size: 12px; font-weight: 200;" fill="rgb(255, 255, 255)" stroke="none" stroke-width="1px">0.82</text><text x="0" y="134.64285714285717" dx="0em" dy="0.3em" style="text-anchor: end; visibility: inherit; font-family: Roboto, sans-serif; font-size: 12px; font-weight: 200;" fill="rgb(255, 255, 255)" stroke="none" stroke-width="1px">0.84</text><text x="0" y="107.71428571428571" dx="0em" dy="0.3em" style="text-anchor: end; visibility: inherit; font-family: Roboto, sans-serif; font-size: 12px; font-weight: 200;" fill="rgb(255, 255, 255)" stroke="none" stroke-width="1px">0.86</text><text x="0" y="80.78571428571425" dx="0em" dy="0.3em" style="text-anchor: end; visibility: inherit; font-family: Roboto, sans-serif; font-size: 12px; font-weight: 200;" fill="rgb(255, 255, 255)" stroke="none" stroke-width="1px">0.88</text><text x="0" y="53.85714285714279" dx="0em" dy="0.3em" style="text-anchor: end; visibility: inherit; font-family: Roboto, sans-serif; font-size: 12px; font-weight: 200;" fill="rgb(255, 255, 255)" stroke="none" stroke-width="1px">0.9</text><text x="0" y="26.928571428571292" dx="0em" dy="0.3em" style="text-anchor: end; visibility: inherit; font-family: Roboto, sans-serif; font-size: 12px; font-weight: 200;" fill="rgb(255, 255, 255)" stroke="none" stroke-width="1px">0.92</text><text x="0" y="0" dx="0em" dy="0.3em" style="text-anchor: end; visibility: hidden; font-family: Roboto, sans-serif; font-size: 12px; font-weight: 200;" fill="rgb(255, 255, 255)" stroke="none" stroke-width="1px">0.94</text></g><line x1="51.5625" y1="0" x2="51.5625" y2="377" fill="rgb(0, 0, 0)" stroke="rgb(204, 204, 204)" stroke-width="1px"></line></g></g><g transform="translate(51, 0)" clip-path="url(#clip_0)"><clipPath id="clip_0"><rect width="1446" height="377"></rect></clipPath><g><g><g><line x1="0" y1="0" x2="0" y2="377" fill="rgb(0, 0, 0)" stroke="rgb(189, 189, 189)" stroke-width="1px" opacity="0.25"></line><line x1="120.53645833333333" y1="0" x2="120.53645833333333" y2="377" fill="rgb(0, 0, 0)" stroke="rgb(189, 189, 189)" stroke-width="1px" opacity="0.25"></line><line x1="241.07291666666666" y1="0" x2="241.07291666666666" y2="377" fill="rgb(0, 0, 0)" stroke="rgb(189, 189, 189)" stroke-width="1px" opacity="0.25"></line><line x1="361.609375" y1="0" x2="361.609375" y2="377" fill="rgb(0, 0, 0)" stroke="rgb(189, 189, 189)" stroke-width="1px" opacity="0.25"></line><line x1="482.1458333333333" y1="0" x2="482.1458333333333" y2="377" fill="rgb(0, 0, 0)" stroke="rgb(189, 189, 189)" stroke-width="1px" opacity="0.25"></line><line x1="602.6822916666667" y1="0" x2="602.6822916666667" y2="377" fill="rgb(0, 0, 0)" stroke="rgb(189, 189, 189)" stroke-width="1px" opacity="0.25"></line><line x1="723.21875" y1="0" x2="723.21875" y2="377" fill="rgb(0, 0, 0)" stroke="rgb(189, 189, 189)" stroke-width="1px" opacity="0.25"></line><line x1="843.7552083333334" y1="0" x2="843.7552083333334" y2="377" fill="rgb(0, 0, 0)" stroke="rgb(189, 189, 189)" stroke-width="1px" opacity="0.25"></line><line x1="964.2916666666666" y1="0" x2="964.2916666666666" y2="377" fill="rgb(0, 0, 0)" stroke="rgb(189, 189, 189)" stroke-width="1px" opacity="0.25"></line><line x1="1084.828125" y1="0" x2="1084.828125" y2="377" fill="rgb(0, 0, 0)" stroke="rgb(189, 189, 189)" stroke-width="1px" opacity="0.25"></line><line x1="1205.3645833333335" y1="0" x2="1205.3645833333335" y2="377" fill="rgb(0, 0, 0)" stroke="rgb(189, 189, 189)" stroke-width="1px" opacity="0.25"></line><line x1="1325.9010416666665" y1="0" x2="1325.9010416666665" y2="377" fill="rgb(0, 0, 0)" stroke="rgb(189, 189, 189)" stroke-width="1px" opacity="0.25"></line><line x1="1446.4375" y1="0" x2="1446.4375" y2="377" fill="rgb(0, 0, 0)" stroke="rgb(189, 189, 189)" stroke-width="1px" opacity="0.25"></line></g><g><line x1="0" y1="377" x2="1446.4375" y2="377" fill="rgb(0, 0, 0)" stroke="rgb(189, 189, 189)" stroke-width="1px" opacity="0.25"></line><line x1="0" y1="350.07142857142856" x2="1446.4375" y2="350.07142857142856" fill="rgb(0, 0, 0)" stroke="rgb(189, 189, 189)" stroke-width="1px" opacity="0.25"></line><line x1="0" y1="323.1428571428572" x2="1446.4375" y2="323.1428571428572" fill="rgb(0, 0, 0)" stroke="rgb(189, 189, 189)" stroke-width="1px" opacity="0.25"></line><line x1="0" y1="296.2142857142857" x2="1446.4375" y2="296.2142857142857" fill="rgb(0, 0, 0)" stroke="rgb(189, 189, 189)" stroke-width="1px" opacity="0.25"></line><line x1="0" y1="269.28571428571433" x2="1446.4375" y2="269.28571428571433" fill="rgb(0, 0, 0)" stroke="rgb(189, 189, 189)" stroke-width="1px" opacity="0.25"></line><line x1="0" y1="242.35714285714283" x2="1446.4375" y2="242.35714285714283" fill="rgb(0, 0, 0)" stroke="rgb(189, 189, 189)" stroke-width="1px" opacity="0.25"></line><line x1="0" y1="215.42857142857142" x2="1446.4375" y2="215.42857142857142" fill="rgb(0, 0, 0)" stroke="rgb(189, 189, 189)" stroke-width="1px" opacity="0.25"></line><line x1="0" y1="188.49999999999991" x2="1446.4375" y2="188.49999999999991" fill="rgb(0, 0, 0)" stroke="rgb(189, 189, 189)" stroke-width="1px" opacity="0.25"></line><line x1="0" y1="161.5714285714286" x2="1446.4375" y2="161.5714285714286" fill="rgb(0, 0, 0)" stroke="rgb(189, 189, 189)" stroke-width="1px" opacity="0.25"></line><line x1="0" y1="134.64285714285717" x2="1446.4375" y2="134.64285714285717" fill="rgb(0, 0, 0)" stroke="rgb(189, 189, 189)" stroke-width="1px" opacity="0.25"></line><line x1="0" y1="107.71428571428571" x2="1446.4375" y2="107.71428571428571" fill="rgb(0, 0, 0)" stroke="rgb(189, 189, 189)" stroke-width="1px" opacity="0.25"></line><line x1="0" y1="80.78571428571425" x2="1446.4375" y2="80.78571428571425" fill="rgb(0, 0, 0)" stroke="rgb(189, 189, 189)" stroke-width="1px" opacity="0.25"></line><line x1="0" y1="53.85714285714279" x2="1446.4375" y2="53.85714285714279" fill="rgb(0, 0, 0)" stroke="rgb(189, 189, 189)" stroke-width="1px" opacity="0.25"></line><line x1="0" y1="26.928571428571292" x2="1446.4375" y2="26.928571428571292" fill="rgb(0, 0, 0)" stroke="rgb(189, 189, 189)" stroke-width="1px" opacity="0.25"></line><line x1="0" y1="0" x2="1446.4375" y2="0" fill="rgb(0, 0, 0)" stroke="rgb(189, 189, 189)" stroke-width="1px" opacity="0.25"></line></g></g></g><g><g><line x1="0" y1="1265.6428571428576" x2="1446.4375" y2="1265.6428571428576" fill="rgb(0, 0, 0)" stroke="rgb(153, 153, 153)" stroke-width="1.5px"></line></g></g><g><g><line x1="120.53645833333333" y1="0" x2="120.53645833333333" y2="377" fill="rgb(0, 0, 0)" stroke="rgb(153, 153, 153)" stroke-width="1.5px"></line></g></g><g><g><g><g><g><path stroke="rgb(0, 119, 187)" stroke-width="2px" d="M168.75104166666668,378.7399341910542L180.8046875,338.9855850151981L192.85833333333332,416.0019308090804L204.91197916666667,336.64427870188894L216.965625,329.15401092938L229.0192708333333,302.03872285166557L241.07291666666666,254.5378003489183L253.12656249999998,355.252421521426L265.1802083333333,286.1725974869774L277.2338541666667,257.30187281675194L289.2875,223.79534237468414L301.34114583333337,197.95499019045172L313.39479166666666,174.02032020147044L325.4484375,146.32372571359414L337.50208333333336,135.44081979976036L349.55572916666665,123.69555401873102L361.609375,156.8770378194385L373.66302083333335,141.0694223635647L385.71666666666664,144.75984201688718L397.77031250000005,138.65232969779433L409.82395833333334,127.17289196240169L421.8776041666667,111.77009318979624L433.93125,116.55357197316879L445.9848958333334,106.91647461528802L458.0385416666666,171.81602516845734L470.0921875,149.08418757249672L482.1458333333333,120.17897276128565L494.19947916666666,106.1919063426924L506.25312499999995,101.34251120668608L518.3067708333333,100.06215263094585L530.3604166666667,86.7277773284508L542.4140625,89.3054064484968L554.4677083333333,78.8308786288914L566.5213541666667,78.06067065579606L578.575,75.0737145054128L590.6286458333333,67.00406905324097L602.6822916666667,77.38263655395362L614.7359375,65.29508056382225L626.7895833333333,58.70803955547189L638.8432291666667,84.42603851256355L650.896875,104.9639130790861L662.9505208333333,98.63080887164834L675.0041666666667,90.83171222956732L687.0578125,77.7320606341394L699.1114583333333,79.79745155244052L711.1651041666667,68.3748576096441L723.21875,58.64149971631545L735.2723958333332,48.74817634185139L747.3260416666667,46.71952710566894L759.3796875,49.199450679668146L771.4333333333333,48.339665254116596L783.4869791666666,56.30285924013361L795.5406250000001,43.78960049391691L807.5942708333333,40.506193227401354L819.6479166666667,45.61597512273604L831.7015624999999,44.16757945221627L843.7552083333334,35.3734165557878L855.8088541666667,41.67325504622166L867.8625,43.25180215211167L879.9161458333333,40.7168040388853L891.9697916666668,44.54298928354134L904.0234375,37.1507535685543L916.0770833333332,34.298103918175876L928.1307291666667,43.362927947529855L940.184375,40.1999625782992L952.2380208333333,40.087819583954236L964.2916666666666,38.79699562643865L976.3453125000001,33.547504815860854L988.3989583333333,86.86799698607278L1000.4526041666667,78.12398661730687L1012.5062499999999,66.7407394270312L1024.5598958333335,53.2963999449842L1036.6135416666666,45.1400358864741L1048.6671875,48.2018840648823L1060.7208333333333,42.938407224082276L1072.7744791666667,43.798394252594484L1084.828125,32.996923222383565L1096.8817708333333,28.12802579541607L1108.9354166666667,22.13193854071347L1120.9890625,18.185790340744354L1133.0427083333334,31.327936229699638L1145.0963541666665,24.073236904854692L1157.15,21.820220056792664L1169.2036458333334,21.879434895478624L1181.2572916666666,21.682508618294897L1193.3109375,23.75423686933419L1205.3645833333335,21.185003422606826L1217.4182291666666,20.094904641346194L1229.471875,16.082897108534546L1241.5255208333333,14.601489775595711L1253.5791666666667,23.617638990249795L1265.6328125,27.09189758788064L1277.6864583333333,80.11091704658611L1289.7401041666667,63.39993071060882L1301.79375,48.82337437776909L1313.8473958333334,35.81247297563736" style="fill: none;" fill="none"></path></g><g><path stroke="rgb(255, 112, 67)" stroke-width="2px" d="M144.64375,413.48074243854865L156.69739583333333,370.6303429515201L168.75104166666668,331.51115663676063L180.8046875,296.8403843807397L192.85833333333332,273.36473244049574L204.91197916666667,248.41313086509413L216.965625,232.74762388879356L229.0192708333333,212.22132769457625L241.07291666666666,195.57915218470302L253.12656249999998,184.87383018523155L265.1802083333333,180.97930617557935L277.2338541666667,169.25001128087763L289.2875,165.5723196946898L301.34114583333337,158.87679526253154L313.39479166666666,149.9326618669673L325.4484375,141.7088984933771L337.50208333333336,134.37224813729722L349.55572916666665,129.46188709294398L361.609375,123.87792488321162L373.66302083333335,117.8250915319541L385.71666666666664,113.55911586365139L397.77031250000005,110.67832736968644L409.82395833333334,108.60727664354577L421.8776041666667,104.38656178222755L433.93125,98.00691168312511L445.9848958333334,96.31994305969229L458.0385416666666,93.86077128499848L470.0921875,89.66020379375064L482.1458333333333,87.35780717757748L494.19947916666666,86.34653838984217L506.25312499999995,82.00011535538573L518.3067708333333,82.88515452883577L530.3604166666667,78.88016433272539L542.4140625,75.84578929840339L554.4677083333333,76.19275360031068L566.5213541666667,74.73927793130275L578.575,74.99026806562145L590.6286458333333,71.51408407798104L602.6822916666667,69.52223857280423L614.7359375,67.450929306014L626.7895833333333,63.35667117491041L638.8432291666667,62.2260425029488L650.896875,61.31037024931248L662.9505208333333,59.804251989663115L675.0041666666667,57.851187352483194L687.0578125,55.990941195147L699.1114583333333,53.82843643426039L711.1651041666667,52.87794160495246L723.21875,53.07210912279815L735.2723958333332,52.770083594307856L747.3260416666667,52.722791948357184L759.3796875,50.930332699249334L771.4333333333333,49.56965266881746L783.4869791666666,48.21886299019198L795.5406250000001,46.164465083231576L807.5942708333333,46.339937269925535L819.6479166666667,46.65224607030149L831.7015624999999,45.707220078842575L843.7552083333334,45.38697945471999L855.8088541666667,44.28603463321785L867.8625,49.85227776813761L879.9161458333333,48.053008219119626L891.9697916666668,45.619620999703564L904.0234375,45.314055458253314L916.0770833333332,43.50348615016824L928.1307291666667,43.17380042315677L940.184375,43.894865826016336L952.2380208333333,42.192490716850656L964.2916666666666,41.39736017362215L976.3453125000001,39.94326295653245L988.3989583333333,39.47536340692889L1000.4526041666667,40.660794833111126L1012.5062499999999,39.581512979685826L1024.5598958333335,39.377669505972676L1036.6135416666666,38.85260374038276L1048.6671875,37.99978146521092L1060.7208333333333,36.94642085614944L1072.7744791666667,34.73140276278323L1084.828125,33.98004539658001L1096.8817708333333,33.26815614538791L1108.9354166666667,32.97888574265755L1120.9890625,32.62763073925482L1133.0427083333334,34.55490186517175L1145.0963541666665,33.31025804884807L1157.15,32.2544887676936L1169.2036458333334,33.69572640081258L1181.2572916666666,32.214121185084075L1193.3109375,30.846217108832338L1205.3645833333335,31.329778449595832L1217.4182291666666,30.83692645155489L1229.471875,32.32895437976183L1241.5255208333333,31.08367229315815L1253.5791666666667,31.025070146697793L1265.6328125,29.63937890618933L1277.6864583333333,29.05314270490778L1289.7401041666667,27.971706486015528L1301.79375,28.301251870921433L1313.8473958333334,27.025834194876243" style="fill: none;" fill="none"></path></g></g></g></g><g opacity="0.2"><g><g><g><path stroke="rgb(0, 119, 187)" stroke-width="2px" d="M132.59010416666666,694.1091836733478L144.64375,265.33795660734177L156.69739583333333,246.37239364215307L168.75104166666668,326.6946477719716L180.8046875,261.81563502550125L192.85833333333332,574.5646468400956L204.91197916666667,166.7257928592818L216.965625,312.6842505335808L229.0192708333333,241.32284992081776L241.07291666666666,146.83314265523634L253.12656249999998,585.6064709339825L265.1802083333333,127.21736666985917L277.2338541666667,190.58954163960047L289.2875,146.14368572405405L301.34114583333337,137.9470853039196L313.39479166666666,118.35835471323553L325.4484375,81.84867694548193L337.50208333333336,110.08872370209008L349.55572916666665,96.32117324216023L361.609375,234.23872208595276L373.66302083333335,104.20558794907156L385.71666666666664,153.36745446920392L397.77031250000005,124.405367902347L409.82395833333334,100.39266881772447L421.8776041666667,75.83504916940413L433.93125,127.7139746887343L445.9848958333334,84.43139175857812L458.0385416666666,323.2413441113064L470.0921875,96.04494105066567L482.1458333333333,52.734991712229544L494.19947916666666,73.55593295608244L506.25312499999995,90.02738085814882L518.3067708333333,97.07467238392144L530.3604166666667,55.61440333298269L542.4140625,95.31985161134172L554.4677083333333,54.39037852627884L566.5213541666667,76.26352205446783L578.575,68.10415921040936L590.6286458333333,48.1749134574617L602.6822916666667,101.59927863734103L614.7359375,37.090795823505886L626.7895833333333,43.338281997612484L638.8432291666667,144.4346896409988L650.896875,152.88561307532444L662.9505208333333,83.85356730222698L675.0041666666667,72.63382142782207L687.0578125,47.16620851414538L699.1114583333333,84.61669685159407L711.1651041666667,41.72213909455701L723.21875,35.93033170700069L735.2723958333332,25.663755425385006L747.3260416666667,41.98601226295739L759.3796875,54.98593898330412L771.4333333333333,46.33349926982599L783.4869791666666,74.88364515134263L795.5406250000001,14.591996814523371L807.5942708333333,32.844909616878994L819.6479166666667,57.53879953282214L831.7015624999999,40.787989556789356L843.7552083333334,14.85370314121238L855.8088541666667,56.37287818534027L867.8625,46.93507873160492L879.9161458333333,34.80180844238821L891.9697916666668,53.47075485331665L904.0234375,19.902203568390377L916.0770833333332,27.64192140102378L928.1307291666667,64.51418401513777L940.184375,32.819710050310334L952.2380208333333,39.82615259715482L964.2916666666666,35.78507305894571L976.3453125000001,21.298692924635702L988.3989583333333,211.28247871569224L1000.4526041666667,57.721295756953054L1012.5062499999999,40.17982931647974L1024.5598958333335,21.926274486950405L1036.6135416666666,26.108519749981937L1048.6671875,55.346196481159694L1060.7208333333333,30.656961262226062L1072.7744791666667,45.80503065245486L1084.828125,7.793490818568572L1096.8817708333333,16.767265132495268L1108.9354166666667,8.141068279743111L1120.9890625,8.978111207485115L1133.0427083333334,61.992943303925614L1145.0963541666665,7.145605146884835L1157.15,16.563180744647894L1169.2036458333334,22.017602852412566L1181.2572916666666,21.22301397153302L1193.3109375,28.588269455092245L1205.3645833333335,15.190125380243503L1217.4182291666666,17.551340818405066L1229.471875,6.721546198640497L1241.5255208333333,11.14487266540519L1253.5791666666667,44.65532049110952L1265.6328125,35.1985009823526L1277.6864583333333,203.82196245023184L1289.7401041666667,24.40762925999499L1301.79375,14.81140960114337L1313.8473958333334,5.453703037330016" style="fill: none;" fill="none"></path></g><g><path stroke="rgb(255, 112, 67)" stroke-width="2px" d="M132.59010416666666,421.8769418512072L144.64375,327.24863696949825L156.69739583333333,304.940680537905L168.75104166666668,262.14892738206044L180.8046875,229.53852140051976L192.85833333333332,225.03261418853486L204.91197916666667,194.9874277796064L216.965625,198.30197331735067L229.0192708333333,166.2593601175717L241.07291666666666,157.84430995157786L253.12656249999998,160.38866364104405L265.1802083333333,172.01786234549112L277.2338541666667,142.14682580743514L289.2875,157.04923955031802L301.34114583333337,143.32807555368967L313.39479166666666,129.13237322228295L325.4484375,122.56475624867845L337.50208333333336,117.28127387591768L349.55572916666665,118.01743828398838L361.609375,110.85907605716157L373.66302083333335,103.70970221076689L385.71666666666664,103.60906445128575L397.77031250000005,103.95832723379131L409.82395833333334,103.77575075626369L421.8776041666667,94.53954783507753L433.93125,83.12245885814934L445.9848958333334,92.38394159930087L458.0385416666666,88.1229677540915L470.0921875,79.85919524090625L482.1458333333333,81.98566949367519L494.19947916666666,83.98694844756804L506.25312499999995,71.85857361555095L518.3067708333333,84.95022996834341L530.3604166666667,69.53523778063904L542.4140625,68.765607706138L554.4677083333333,77.00233482463013L566.5213541666667,71.34784099885393L578.575,75.57591095140997L590.6286458333333,63.402995484215836L602.6822916666667,64.87460201978679L614.7359375,62.61787650414868L626.7895833333333,53.803405182702164L638.8432291666667,59.58790951115738L650.896875,59.17380198410574L662.9505208333333,56.28997642653323L675.0041666666667,53.29403687374926L687.0578125,51.65036705562039L699.1114583333333,48.78259217739101L711.1651041666667,50.66012039354864L723.21875,53.52516665628973L735.2723958333332,52.06535737003594L747.3260416666667,52.612444775445084L759.3796875,46.74792781046453L771.4333333333333,46.39473261151987L783.4869791666666,45.06702041625972L795.5406250000001,41.370869977133566L807.5942708333333,46.7493723716054L819.6479166666667,47.38096660375591L831.7015624999999,43.50215943370539L843.7552083333334,44.6397513321467L855.8088541666667,41.71716338396068L867.8625,62.84017841305047L879.9161458333333,43.85471260547634L891.9697916666668,39.94171748842507L904.0234375,44.60106919492989L916.0770833333332,39.27882443155556L928.1307291666667,42.40453372682839L940.184375,45.57735176597315L952.2380208333333,38.220282128878935L964.2916666666666,39.54205557278219L976.3453125000001,36.550369450024135L988.3989583333333,38.38359779119487L1000.4526041666667,43.426801494189604L1012.5062499999999,37.06318865503579L1024.5598958333335,38.90203473397656L1036.6135416666666,37.62745028734203L1048.6671875,36.00986282314568L1060.7208333333333,34.488579435007864L1072.7744791666667,29.563027211597927L1084.828125,32.22687820877343L1096.8817708333333,31.607081225940092L1108.9354166666667,32.303921469620235L1120.9890625,31.80803573131557L1133.0427083333334,39.05186782564431L1145.0963541666665,30.40608914409357L1157.15,29.791027111666494L1169.2036458333334,37.05861421142298L1181.2572916666666,28.757042348384772L1193.3109375,27.654440930911406L1205.3645833333335,32.458088244710595L1217.4182291666666,29.686938456126555L1229.471875,35.810352878911075L1241.5255208333333,28.178014091082915L1253.5791666666667,30.888331804956636L1265.6328125,26.4060993450028L1277.6864583333333,27.685258235250146L1289.7401041666667,25.448355308600767L1301.79375,29.070191102368412L1313.8473958333334,24.049859617437562" style="fill: none;" fill="none"></path></g></g></g></g></g></g><g transform="translate(51, 377)" clip-path="url(#clip_1)"><clipPath id="clip_1"><rect width="1446" height="23"></rect></clipPath><g><g><line x1="0" y1="0" x2="0" y2="5" style="visibility: inherit;" fill="rgb(0, 0, 0)" stroke="rgb(204, 204, 204)" stroke-width="1px"></line><line x1="120.53645833333333" y1="0" x2="120.53645833333333" y2="5" style="visibility: inherit;" fill="rgb(0, 0, 0)" stroke="rgb(204, 204, 204)" stroke-width="1px"></line><line x1="241.07291666666666" y1="0" x2="241.07291666666666" y2="5" style="visibility: inherit;" fill="rgb(0, 0, 0)" stroke="rgb(204, 204, 204)" stroke-width="1px"></line><line x1="361.609375" y1="0" x2="361.609375" y2="5" style="visibility: inherit;" fill="rgb(0, 0, 0)" stroke="rgb(204, 204, 204)" stroke-width="1px"></line><line x1="482.1458333333333" y1="0" x2="482.1458333333333" y2="5" style="visibility: inherit;" fill="rgb(0, 0, 0)" stroke="rgb(204, 204, 204)" stroke-width="1px"></line><line x1="602.6822916666667" y1="0" x2="602.6822916666667" y2="5" style="visibility: inherit;" fill="rgb(0, 0, 0)" stroke="rgb(204, 204, 204)" stroke-width="1px"></line><line x1="723.21875" y1="0" x2="723.21875" y2="5" style="visibility: inherit;" fill="rgb(0, 0, 0)" stroke="rgb(204, 204, 204)" stroke-width="1px"></line><line x1="843.7552083333334" y1="0" x2="843.7552083333334" y2="5" style="visibility: inherit;" fill="rgb(0, 0, 0)" stroke="rgb(204, 204, 204)" stroke-width="1px"></line><line x1="964.2916666666666" y1="0" x2="964.2916666666666" y2="5" style="visibility: inherit;" fill="rgb(0, 0, 0)" stroke="rgb(204, 204, 204)" stroke-width="1px"></line><line x1="1084.828125" y1="0" x2="1084.828125" y2="5" style="visibility: inherit;" fill="rgb(0, 0, 0)" stroke="rgb(204, 204, 204)" stroke-width="1px"></line><line x1="1205.3645833333335" y1="0" x2="1205.3645833333335" y2="5" style="visibility: inherit;" fill="rgb(0, 0, 0)" stroke="rgb(204, 204, 204)" stroke-width="1px"></line><line x1="1325.9010416666665" y1="0" x2="1325.9010416666665" y2="5" style="visibility: inherit;" fill="rgb(0, 0, 0)" stroke="rgb(204, 204, 204)" stroke-width="1px"></line><line x1="1446.4375" y1="0" x2="1446.4375" y2="5" style="visibility: inherit;" fill="rgb(0, 0, 0)" stroke="rgb(204, 204, 204)" stroke-width="1px"></line></g><g transform="translate(0, 8)"><text x="0" y="0" dx="0em" dy="0.95em" style="text-anchor: middle; visibility: hidden; font-family: Roboto, sans-serif; font-size: 12px; font-weight: 200;" fill="rgb(255, 255, 255)" stroke="none" stroke-width="1px">-10</text><text x="120.53645833333333" y="0" dx="0em" dy="0.95em" style="text-anchor: middle; visibility: inherit; font-family: Roboto, sans-serif; font-size: 12px; font-weight: 200;" fill="rgb(255, 255, 255)" stroke="none" stroke-width="1px">0</text><text x="241.07291666666666" y="0" dx="0em" dy="0.95em" style="text-anchor: middle; visibility: inherit; font-family: Roboto, sans-serif; font-size: 12px; font-weight: 200;" fill="rgb(255, 255, 255)" stroke="none" stroke-width="1px">10</text><text x="361.609375" y="0" dx="0em" dy="0.95em" style="text-anchor: middle; visibility: inherit; font-family: Roboto, sans-serif; font-size: 12px; font-weight: 200;" fill="rgb(255, 255, 255)" stroke="none" stroke-width="1px">20</text><text x="482.1458333333333" y="0" dx="0em" dy="0.95em" style="text-anchor: middle; visibility: inherit; font-family: Roboto, sans-serif; font-size: 12px; font-weight: 200;" fill="rgb(255, 255, 255)" stroke="none" stroke-width="1px">30</text><text x="602.6822916666667" y="0" dx="0em" dy="0.95em" style="text-anchor: middle; visibility: inherit; font-family: Roboto, sans-serif; font-size: 12px; font-weight: 200;" fill="rgb(255, 255, 255)" stroke="none" stroke-width="1px">40</text><text x="723.21875" y="0" dx="0em" dy="0.95em" style="text-anchor: middle; visibility: inherit; font-family: Roboto, sans-serif; font-size: 12px; font-weight: 200;" fill="rgb(255, 255, 255)" stroke="none" stroke-width="1px">50</text><text x="843.7552083333334" y="0" dx="0em" dy="0.95em" style="text-anchor: middle; visibility: inherit; font-family: Roboto, sans-serif; font-size: 12px; font-weight: 200;" fill="rgb(255, 255, 255)" stroke="none" stroke-width="1px">60</text><text x="964.2916666666666" y="0" dx="0em" dy="0.95em" style="text-anchor: middle; visibility: inherit; font-family: Roboto, sans-serif; font-size: 12px; font-weight: 200;" fill="rgb(255, 255, 255)" stroke="none" stroke-width="1px">70</text><text x="1084.828125" y="0" dx="0em" dy="0.95em" style="text-anchor: middle; visibility: inherit; font-family: Roboto, sans-serif; font-size: 12px; font-weight: 200;" fill="rgb(255, 255, 255)" stroke="none" stroke-width="1px">80</text><text x="1205.3645833333335" y="0" dx="0em" dy="0.95em" style="text-anchor: middle; visibility: inherit; font-family: Roboto, sans-serif; font-size: 12px; font-weight: 200;" fill="rgb(255, 255, 255)" stroke="none" stroke-width="1px">90</text><text x="1325.9010416666665" y="0" dx="0em" dy="0.95em" style="text-anchor: middle; visibility: inherit; font-family: Roboto, sans-serif; font-size: 12px; font-weight: 200;" fill="rgb(255, 255, 255)" stroke="none" stroke-width="1px">100</text><text x="1446.4375" y="0" dx="0em" dy="0.95em" style="text-anchor: middle; visibility: hidden; font-family: Roboto, sans-serif; font-size: 12px; font-weight: 200;" fill="rgb(255, 255, 255)" stroke="none" stroke-width="1px">110</text></g><line x1="0" y1="0" x2="1446.4375" y2="0" fill="rgb(0, 0, 0)" stroke="rgb(204, 204, 204)" stroke-width="1px"></line></g></g></g></g></svg>