<svg viewBox="0 0 1498 400" xmlns="http://www.w3.org/2000/svg"><g><g><g><g><g><line x1="51.5625" y1="377" x2="46.5625" y2="377" style="visibility: inherit;" fill="rgb(0, 0, 0)" stroke="rgb(204, 204, 204)" stroke-width="1px"></line><line x1="51.5625" y1="348" x2="46.5625" y2="348" style="visibility: inherit;" fill="rgb(0, 0, 0)" stroke="rgb(204, 204, 204)" stroke-width="1px"></line><line x1="51.5625" y1="318.99999999999994" x2="46.5625" y2="318.99999999999994" style="visibility: inherit;" fill="rgb(0, 0, 0)" stroke="rgb(204, 204, 204)" stroke-width="1px"></line><line x1="51.5625" y1="289.99999999999994" x2="46.5625" y2="289.99999999999994" style="visibility: inherit;" fill="rgb(0, 0, 0)" stroke="rgb(204, 204, 204)" stroke-width="1px"></line><line x1="51.5625" y1="260.9999999999999" x2="46.5625" y2="260.9999999999999" style="visibility: inherit;" fill="rgb(0, 0, 0)" stroke="rgb(204, 204, 204)" stroke-width="1px"></line><line x1="51.5625" y1="232.00000000000017" x2="46.5625" y2="232.00000000000017" style="visibility: inherit;" fill="rgb(0, 0, 0)" stroke="rgb(204, 204, 204)" stroke-width="1px"></line><line x1="51.5625" y1="203.0000000000002" x2="46.5625" y2="203.0000000000002" style="visibility: inherit;" fill="rgb(0, 0, 0)" stroke="rgb(204, 204, 204)" stroke-width="1px"></line><line x1="51.5625" y1="174.00000000000014" x2="46.5625" y2="174.00000000000014" style="visibility: inherit;" fill="rgb(0, 0, 0)" stroke="rgb(204, 204, 204)" stroke-width="1px"></line><line x1="51.5625" y1="145.0000000000001" x2="46.5625" y2="145.0000000000001" style="visibility: inherit;" fill="rgb(0, 0, 0)" stroke="rgb(204, 204, 204)" stroke-width="1px"></line><line x1="51.5625" y1="116.00000000000009" x2="46.5625" y2="116.00000000000009" style="visibility: inherit;" fill="rgb(0, 0, 0)" stroke="rgb(204, 204, 204)" stroke-width="1px"></line><line x1="51.5625" y1="87.00000000000007" x2="46.5625" y2="87.00000000000007" style="visibility: inherit;" fill="rgb(0, 0, 0)" stroke="rgb(204, 204, 204)" stroke-width="1px"></line><line x1="51.5625" y1="58.00000000000004" x2="46.5625" y2="58.00000000000004" style="visibility: inherit;" fill="rgb(0, 0, 0)" stroke="rgb(204, 204, 204)" stroke-width="1px"></line><line x1="51.5625" y1="29.00000000000002" x2="46.5625" y2="29.00000000000002" style="visibility: inherit;" fill="rgb(0, 0, 0)" stroke="rgb(204, 204, 204)" stroke-width="1px"></line><line x1="51.5625" y1="0" x2="46.5625" y2="0" style="visibility: inherit;" fill="rgb(0, 0, 0)" stroke="rgb(204, 204, 204)" stroke-width="1px"></line></g><g transform="translate(41.5625, 0)"><text x="0" y="377" dx="0em" dy="0.3em" style="text-anchor: end; visibility: hidden; font-family: Roboto, sans-serif; font-size: 12px; font-weight: 200;" fill="rgb(255, 255, 255)" stroke="none" stroke-width="1px">0.77</text><text x="0" y="348" dx="0em" dy="0.3em" style="text-anchor: end; visibility: inherit; font-family: Roboto, sans-serif; font-size: 12px; font-weight: 200;" fill="rgb(255, 255, 255)" stroke="none" stroke-width="1px">0.78</text><text x="0" y="318.99999999999994" dx="0em" dy="0.3em" style="text-anchor: end; visibility: inherit; font-family: Roboto, sans-serif; font-size: 12px; font-weight: 200;" fill="rgb(255, 255, 255)" stroke="none" stroke-width="1px">0.79</text><text x="0" y="289.99999999999994" dx="0em" dy="0.3em" style="text-anchor: end; visibility: inherit; font-family: Roboto, sans-serif; font-size: 12px; font-weight: 200;" fill="rgb(255, 255, 255)" stroke="none" stroke-width="1px">0.8</text><text x="0" y="260.9999999999999" dx="0em" dy="0.3em" style="text-anchor: end; visibility: inherit; font-family: Roboto, sans-serif; font-size: 12px; font-weight: 200;" fill="rgb(255, 255, 255)" stroke="none" stroke-width="1px">0.81</text><text x="0" y="232.00000000000017" dx="0em" dy="0.3em" style="text-anchor: end; visibility: inherit; font-family: Roboto, sans-serif; font-size: 12px; font-weight: 200;" fill="rgb(255, 255, 255)" stroke="none" stroke-width="1px">0.82</text><text x="0" y="203.0000000000002" dx="0em" dy="0.3em" style="text-anchor: end; visibility: inherit; font-family: Roboto, sans-serif; font-size: 12px; font-weight: 200;" fill="rgb(255, 255, 255)" stroke="none" stroke-width="1px">0.83</text><text x="0" y="174.00000000000014" dx="0em" dy="0.3em" style="text-anchor: end; visibility: inherit; font-family: Roboto, sans-serif; font-size: 12px; font-weight: 200;" fill="rgb(255, 255, 255)" stroke="none" stroke-width="1px">0.84</text><text x="0" y="145.0000000000001" dx="0em" dy="0.3em" style="text-anchor: end; visibility: inherit; font-family: Roboto, sans-serif; font-size: 12px; font-weight: 200;" fill="rgb(255, 255, 255)" stroke="none" stroke-width="1px">0.85</text><text x="0" y="116.00000000000009" dx="0em" dy="0.3em" style="text-anchor: end; visibility: inherit; font-family: Roboto, sans-serif; font-size: 12px; font-weight: 200;" fill="rgb(255, 255, 255)" stroke="none" stroke-width="1px">0.86</text><text x="0" y="87.00000000000007" dx="0em" dy="0.3em" style="text-anchor: end; visibility: inherit; font-family: Roboto, sans-serif; font-size: 12px; font-weight: 200;" fill="rgb(255, 255, 255)" stroke="none" stroke-width="1px">0.87</text><text x="0" y="58.00000000000004" dx="0em" dy="0.3em" style="text-anchor: end; visibility: inherit; font-family: Roboto, sans-serif; font-size: 12px; font-weight: 200;" fill="rgb(255, 255, 255)" stroke="none" stroke-width="1px">0.88</text><text x="0" y="29.00000000000002" dx="0em" dy="0.3em" style="text-anchor: end; visibility: inherit; font-family: Roboto, sans-serif; font-size: 12px; font-weight: 200;" fill="rgb(255, 255, 255)" stroke="none" stroke-width="1px">0.89</text><text x="0" y="0" dx="0em" dy="0.3em" style="text-anchor: end; visibility: hidden; font-family: Roboto, sans-serif; font-size: 12px; font-weight: 200;" fill="rgb(255, 255, 255)" stroke="none" stroke-width="1px">0.9</text></g><line x1="51.5625" y1="0" x2="51.5625" y2="377" fill="rgb(0, 0, 0)" stroke="rgb(204, 204, 204)" stroke-width="1px"></line></g></g><g transform="translate(51, 0)" clip-path="url(#clip_0)"><clipPath id="clip_0"><rect width="1446" height="377"></rect></clipPath><g><g><g><line x1="0" y1="0" x2="0" y2="377" fill="rgb(0, 0, 0)" stroke="rgb(189, 189, 189)" stroke-width="1px" opacity="0.25"></line><line x1="120.53645833333333" y1="0" x2="120.53645833333333" y2="377" fill="rgb(0, 0, 0)" stroke="rgb(189, 189, 189)" stroke-width="1px" opacity="0.25"></line><line x1="241.07291666666666" y1="0" x2="241.07291666666666" y2="377" fill="rgb(0, 0, 0)" stroke="rgb(189, 189, 189)" stroke-width="1px" opacity="0.25"></line><line x1="361.609375" y1="0" x2="361.609375" y2="377" fill="rgb(0, 0, 0)" stroke="rgb(189, 189, 189)" stroke-width="1px" opacity="0.25"></line><line x1="482.1458333333333" y1="0" x2="482.1458333333333" y2="377" fill="rgb(0, 0, 0)" stroke="rgb(189, 189, 189)" stroke-width="1px" opacity="0.25"></line><line x1="602.6822916666667" y1="0" x2="602.6822916666667" y2="377" fill="rgb(0, 0, 0)" stroke="rgb(189, 189, 189)" stroke-width="1px" opacity="0.25"></line><line x1="723.21875" y1="0" x2="723.21875" y2="377" fill="rgb(0, 0, 0)" stroke="rgb(189, 189, 189)" stroke-width="1px" opacity="0.25"></line><line x1="843.7552083333334" y1="0" x2="843.7552083333334" y2="377" fill="rgb(0, 0, 0)" stroke="rgb(189, 189, 189)" stroke-width="1px" opacity="0.25"></line><line x1="964.2916666666666" y1="0" x2="964.2916666666666" y2="377" fill="rgb(0, 0, 0)" stroke="rgb(189, 189, 189)" stroke-width="1px" opacity="0.25"></line><line x1="1084.828125" y1="0" x2="1084.828125" y2="377" fill="rgb(0, 0, 0)" stroke="rgb(189, 189, 189)" stroke-width="1px" opacity="0.25"></line><line x1="1205.3645833333335" y1="0" x2="1205.3645833333335" y2="377" fill="rgb(0, 0, 0)" stroke="rgb(189, 189, 189)" stroke-width="1px" opacity="0.25"></line><line x1="1325.9010416666665" y1="0" x2="1325.9010416666665" y2="377" fill="rgb(0, 0, 0)" stroke="rgb(189, 189, 189)" stroke-width="1px" opacity="0.25"></line><line x1="1446.4375" y1="0" x2="1446.4375" y2="377" fill="rgb(0, 0, 0)" stroke="rgb(189, 189, 189)" stroke-width="1px" opacity="0.25"></line></g><g><line x1="0" y1="377" x2="1446.4375" y2="377" fill="rgb(0, 0, 0)" stroke="rgb(189, 189, 189)" stroke-width="1px" opacity="0.25"></line><line x1="0" y1="348" x2="1446.4375" y2="348" fill="rgb(0, 0, 0)" stroke="rgb(189, 189, 189)" stroke-width="1px" opacity="0.25"></line><line x1="0" y1="318.99999999999994" x2="1446.4375" y2="318.99999999999994" fill="rgb(0, 0, 0)" stroke="rgb(189, 189, 189)" stroke-width="1px" opacity="0.25"></line><line x1="0" y1="289.99999999999994" x2="1446.4375" y2="289.99999999999994" fill="rgb(0, 0, 0)" stroke="rgb(189, 189, 189)" stroke-width="1px" opacity="0.25"></line><line x1="0" y1="260.9999999999999" x2="1446.4375" y2="260.9999999999999" fill="rgb(0, 0, 0)" stroke="rgb(189, 189, 189)" stroke-width="1px" opacity="0.25"></line><line x1="0" y1="232.00000000000017" x2="1446.4375" y2="232.00000000000017" fill="rgb(0, 0, 0)" stroke="rgb(189, 189, 189)" stroke-width="1px" opacity="0.25"></line><line x1="0" y1="203.0000000000002" x2="1446.4375" y2="203.0000000000002" fill="rgb(0, 0, 0)" stroke="rgb(189, 189, 189)" stroke-width="1px" opacity="0.25"></line><line x1="0" y1="174.00000000000014" x2="1446.4375" y2="174.00000000000014" fill="rgb(0, 0, 0)" stroke="rgb(189, 189, 189)" stroke-width="1px" opacity="0.25"></line><line x1="0" y1="145.0000000000001" x2="1446.4375" y2="145.0000000000001" fill="rgb(0, 0, 0)" stroke="rgb(189, 189, 189)" stroke-width="1px" opacity="0.25"></line><line x1="0" y1="116.00000000000009" x2="1446.4375" y2="116.00000000000009" fill="rgb(0, 0, 0)" stroke="rgb(189, 189, 189)" stroke-width="1px" opacity="0.25"></line><line x1="0" y1="87.00000000000007" x2="1446.4375" y2="87.00000000000007" fill="rgb(0, 0, 0)" stroke="rgb(189, 189, 189)" stroke-width="1px" opacity="0.25"></line><line x1="0" y1="58.00000000000004" x2="1446.4375" y2="58.00000000000004" fill="rgb(0, 0, 0)" stroke="rgb(189, 189, 189)" stroke-width="1px" opacity="0.25"></line><line x1="0" y1="29.00000000000002" x2="1446.4375" y2="29.00000000000002" fill="rgb(0, 0, 0)" stroke="rgb(189, 189, 189)" stroke-width="1px" opacity="0.25"></line><line x1="0" y1="0" x2="1446.4375" y2="0" fill="rgb(0, 0, 0)" stroke="rgb(189, 189, 189)" stroke-width="1px" opacity="0.25"></line></g></g></g><g><g><line x1="0" y1="2610" x2="1446.4375" y2="2610" fill="rgb(0, 0, 0)" stroke="rgb(153, 153, 153)" stroke-width="1.5px"></line></g></g><g><g><line x1="120.53645833333333" y1="0" x2="120.53645833333333" y2="377" fill="rgb(0, 0, 0)" stroke="rgb(153, 153, 153)" stroke-width="1.5px"></line></g></g><g><g><g><g><g><path stroke="rgb(0, 119, 187)" stroke-width="2px" d="M132.59010416666666,-27.548940672594135L144.64375,332.43733920463126L156.69739583333333,374.41652846110446L168.75104166666668,283.11836504974053L180.8046875,245.4891911599683L192.85833333333332,172.09478090269562L204.91197916666667,288.4319880792816L216.965625,336.7874152749491L229.0192708333333,271.2197235367666L241.07291666666666,245.9045580068781L253.12656249999998,238.5454885485087L265.1802083333333,370.46502694362016L277.2338541666667,286.18479200393796L289.2875,267.49268085571293L301.34114583333337,250.19155698767634L313.39479166666666,225.63870738592593L325.4484375,233.47824921958494L337.50208333333336,224.8468812196953L349.55572916666665,199.70722022963122L361.609375,264.59249122013085L373.66302083333335,278.24164538959826L385.71666666666664,234.75720639983297L397.77031250000005,179.29250806044467L409.82395833333334,187.7812344766622L421.8776041666667,165.01572640999646L433.93125,188.08279267097708L445.9848958333334,201.48689981161397L458.0385416666666,199.45443734879584L470.0921875,165.17496702668322L482.1458333333333,189.46183839627685L494.19947916666666,167.5638735919933L506.25312499999995,145.31979462959825L518.3067708333333,104.38304065019884L530.3604166666667,110.72198538069156L542.4140625,76.77103894021134L554.4677083333333,111.72949008162726L566.5213541666667,98.98179186438274L578.575,130.16639920401678L590.6286458333333,129.77274123231618L602.6822916666667,92.41527235907661L614.7359375,108.74356411158932L626.7895833333333,112.75463147716923L638.8432291666667,107.18632989073272L650.896875,76.59914548780665L662.9505208333333,62.625467593932065L675.0041666666667,73.56686505508847L687.0578125,63.887360207438654L699.1114583333333,65.42879390558156L711.1651041666667,67.07245791419425L723.21875,118.68714444373953L735.2723958333332,121.85699877725446L747.3260416666667,122.95362835120619L759.3796875,100.7110323292586L771.4333333333333,93.96623180732843L783.4869791666666,57.509181745181564L795.5406250000001,109.64703882819958L807.5942708333333,121.77301443443785L819.6479166666667,111.83363462539674L831.7015624999999,94.12065915893209L843.7552083333334,131.22490873108026L855.8088541666667,104.78822736398686L867.8625,79.59996612347754L879.9161458333333,73.13092205876991L891.9697916666668,97.5829619763157L904.0234375,94.39360139932036L916.0770833333332,81.25909422497725L928.1307291666667,97.04565352508516L940.184375,76.92132662112395L952.2380208333333,89.92233790239882L964.2916666666666,65.54421534212626L976.3453125000001,66.93364255678163L988.3989583333333,95.33891696880391L1000.4526041666667,79.5707512040896L1012.5062499999999,75.9311809637035L1024.5598958333335,64.03503030025108L1036.6135416666666,66.62383630512673L1048.6671875,60.26172534869545L1060.7208333333333,45.277530306295986L1072.7744791666667,26.482293136510922L1084.828125,55.62781479887563L1096.8817708333333,46.15691859376875L1108.9354166666667,88.23608536717626L1120.9890625,80.12558592794392L1133.0427083333334,71.02651545809269L1145.0963541666665,81.22957897767067L1157.15,72.73297861028938L1169.2036458333334,64.98647229240797L1181.2572916666666,59.91565739568582L1193.3109375,48.46908605912885L1205.3645833333335,42.21907295558526L1217.4182291666666,46.93577601950913L1229.471875,55.81162957458809L1241.5255208333333,58.882717685663515L1253.5791666666667,53.28217919442523L1265.6328125,39.520407230073495L1277.6864583333333,59.629095432450654L1289.7401041666667,50.521637664341334L1301.79375,65.26598259436312L1313.8473958333334,59.028404903799675" style="fill: none;" fill="none"></path></g><g><path stroke="rgb(255, 112, 67)" stroke-width="2px" d="M192.85833333333332,383.8078904675592L204.91197916666667,350.0249077031467L216.965625,320.32492009734653L229.0192708333333,291.5930191517714L241.07291666666666,268.5345749539491L253.12656249999998,251.67043289048826L265.1802083333333,246.71611362666835L277.2338541666667,233.0963550514007L289.2875,229.7399284826378L301.34114583333337,231.38025511437226L313.39479166666666,219.09251292816535L325.4484375,207.87968159002142L337.50208333333336,197.41108768197398L349.55572916666665,188.0794857602296L361.609375,175.79311995584135L373.66302083333335,166.45863944248387L385.71666666666664,159.23374161907526L397.77031250000005,155.95928118063426L409.82395833333334,152.7231574187842L421.8776041666667,146.84447583413896L433.93125,139.06804009332143L445.9848958333334,139.13153828042908L458.0385416666666,132.43992818723865L470.0921875,123.86055298370079L482.1458333333333,121.81394530280622L494.19947916666666,117.69749735381527L506.25312499999995,112.56206673063873L518.3067708333333,108.1866404773923L530.3604166666667,99.69777306381215L542.4140625,95.30768955221507L554.4677083333333,100.26777495874228L566.5213541666667,98.98794370448215L578.575,100.8244118137321L590.6286458333333,90.7293972205019L602.6822916666667,89.06058799175496L614.7359375,87.85420399683774L626.7895833333333,82.09979693835531L638.8432291666667,82.13826399161212L650.896875,79.59670908652608L662.9505208333333,73.5103539952623L675.0041666666667,70.91655890755416L687.0578125,67.64535514854116L699.1114583333333,66.52471076390778L711.1651041666667,69.3800352894106L723.21875,67.1423831119551L735.2723958333332,68.75075716940266L747.3260416666667,67.64929831756531L759.3796875,66.3687915201662L771.4333333333333,64.98841247707327L783.4869791666666,58.90883036384895L795.5406250000001,52.9812322722587L807.5942708333333,54.9549193667671L819.6479166666667,54.356014414304134L831.7015624999999,54.6695586629029L843.7552083333334,47.69795501094718L855.8088541666667,48.19940053140822L867.8625,59.799024801497424L879.9161458333333,55.14298897798801L891.9697916666668,51.6194018050125L904.0234375,52.16391180229099L916.0770833333332,44.1955720777986L928.1307291666667,50.673174816259205L940.184375,51.70498415881732L952.2380208333333,48.18433757159055L964.2916666666666,43.34944161641789L976.3453125000001,38.108049621224474L988.3989583333333,40.20017766260949L1000.4526041666667,38.99304406158459L1012.5062499999999,36.90609836000333L1024.5598958333335,34.562750263932244L1036.6135416666666,35.063905519988666L1048.6671875,34.27896319023982L1060.7208333333333,29.520348715129295L1072.7744791666667,26.100904032725847L1084.828125,20.393847306167885L1096.8817708333333,18.0373510675793L1108.9354166666667,21.906271722915122L1120.9890625,21.972399038971886L1133.0427083333334,32.97462506893475L1145.0963541666665,31.917957252882175L1157.15,28.58590258224381L1169.2036458333334,31.572286577468333L1181.2572916666666,29.385513548067895L1193.3109375,27.77942559998032L1205.3645833333335,28.426203403041335L1217.4182291666666,23.80307115238469L1229.471875,22.000749965360836L1241.5255208333333,23.619157793020822L1253.5791666666667,17.186972881681786L1265.6328125,18.137520998447084L1277.6864583333333,19.77717597763796L1289.7401041666667,17.998698072003613L1301.79375,14.501966815647425L1313.8473958333334,14.918575214366117" style="fill: none;" fill="none"></path></g></g></g></g><g opacity="0.2"><g><g><g><path stroke="rgb(0, 119, 187)" stroke-width="2px" d="M156.69739583333333,438.77062559127813L168.75104166666668,121.23759150505073L180.8046875,172.44456768035894L192.85833333333332,20.988974571228095L204.91197916666667,537.5301098823549L216.965625,443.1123590469361L229.0192708333333,124.40219283103951L241.07291666666666,188.50438356399542L253.12656249999998,221.71385645866403L265.1802083333333,674.0167653560638L277.2338541666667,91.43627047538764L289.2875,224.17356133461L301.34114583333337,210.0139236450196L313.39479166666666,168.53911638259893L325.4484375,251.72796010971075L337.50208333333336,204.7398185729981L349.55572916666665,141.11487627029422L361.609375,415.87065219879156L373.66302083333335,310.0718832015992L385.71666666666664,133.33318591117862L397.77031250000005,49.91029858589179L409.82395833333334,207.58446812629705L421.8776041666667,111.9033312797547L433.93125,241.90089464187625L445.9848958333334,232.76109457015997L458.0385416666666,194.71224308013922L470.0921875,85.19211173057562L482.1458333333333,246.1299276351929L494.19947916666666,116.46942853927618L506.25312499999995,93.41751694679266L518.3067708333333,8.864686489105296L530.3604166666667,125.51277637481695L542.4140625,-2.4475359916686177L554.4677083333333,193.2989931106568L566.5213541666667,69.23721790313728L578.575,202.93038845062264L590.6286458333333,128.85420680046087L602.6822916666667,5.247900485992505L614.7359375,146.84289455413827L626.7895833333333,122.11378574371345L638.8432291666667,94.19362902641303L650.896875,5.229059457778995L662.9505208333333,30.020222663879455L675.0041666666667,99.09679055213935L687.0578125,41.30185008049017L699.1114583333333,69.02547240257269L711.1651041666667,70.90767383575444L723.21875,239.12141084671026L735.2723958333332,129.25332546234137L747.3260416666667,125.51243066787727L759.3796875,48.81164193153387L771.4333333333333,78.22836399078375L783.4869791666666,-27.55726814270017L795.5406250000001,231.3020384311677L807.5942708333333,150.06695747375494L819.6479166666667,88.64174842834477L831.7015624999999,52.79038310050969L843.7552083333334,217.80149102211007L855.8088541666667,43.10263752937324L867.8625,20.827356576919616L879.9161458333333,58.03648591041573L891.9697916666668,154.63772177696234L904.0234375,86.9517600536347L916.0770833333332,50.61191082000737L928.1307291666667,133.88095855712896L940.184375,29.96456384658822L952.2380208333333,120.25803089141851L964.2916666666666,8.661929368972826L976.3453125000001,70.1756393909455L988.3989583333333,161.61789059638983L1000.4526041666667,42.77836441993718L1012.5062499999999,67.43885040283209L1024.5598958333335,36.27734541893011L1036.6135416666666,72.66438364982612L1048.6671875,45.41679978370674L1060.7208333333333,10.314408540725767L1072.7744791666667,-17.373260259628193L1084.828125,123.63403201103218L1096.8817708333333,24.058160781860433L1108.9354166666667,186.42080783843997L1120.9890625,61.201087236404476L1133.0427083333334,49.79535102844246L1145.0963541666665,105.03672719001779L1157.15,52.907577753067095L1169.2036458333334,46.911290884018015L1181.2572916666666,48.08375597000127L1193.3109375,21.76041960716256L1205.3645833333335,27.63570904731758L1217.4182291666666,57.941416501998965L1229.471875,76.52195453643803L1241.5255208333333,66.04858994483955L1253.5791666666667,40.21425604820257L1265.6328125,7.409605979919507L1277.6864583333333,106.54936790466316L1289.7401041666667,29.270902872085628L1301.79375,99.66945409774785L1313.8473958333334,44.47405695915231" style="fill: none;" fill="none"></path></g><g><path stroke="rgb(255, 112, 67)" stroke-width="2px" d="M156.69739583333333,384.9775886535645L168.75104166666668,304.0271973609925L180.8046875,285.6765544414521L192.85833333333332,310.6576836109162L204.91197916666667,277.68968701362616L216.965625,255.01995444297796L229.0192708333333,227.25726723670968L241.07291666666666,216.2513411045075L253.12656249999998,213.09883952140814L265.1802083333333,235.3160417079926L277.2338541666667,201.62482619285592L289.2875,221.96138262748724L301.34114583333337,235.18951296806344L313.39479166666666,190.51639795303348L325.4484375,181.7772722244263L337.50208333333336,173.0241453647614L349.55572916666665,166.33056759834295L361.609375,147.14780807495123L373.66302083333335,144.69035029411322L385.71666666666664,142.3822379112244L397.77031250000005,148.3209645748139L409.82395833333334,145.17364859581L421.8776041666667,133.1293916702271L433.93125,120.92472672462468L445.9848958333334,139.2796909809113L458.0385416666666,116.82688951492315L470.0921875,103.84265542030342L482.1458333333333,117.03863501548774L494.19947916666666,108.09260368347172L506.25312499999995,100.5795276165009L518.3067708333333,97.97739148139958L530.3604166666667,79.89052295684819L542.4140625,85.06420016288763L554.4677083333333,111.84127688407905L566.5213541666667,96.00167632102972L578.575,105.10949850082402L590.6286458333333,67.1743845939637L602.6822916666667,85.16670227050786L614.7359375,85.03930926322943L626.7895833333333,68.67285132408146L638.8432291666667,82.22802042961128L650.896875,73.66641521453865L662.9505208333333,59.3088603019715L675.0041666666667,64.86437082290657L687.0578125,60.01254677772527L699.1114583333333,63.9098739624024L711.1651041666667,76.04245901107797L723.21875,61.92119479179388L735.2723958333332,72.50362992286689L747.3260416666667,65.07922768592842L759.3796875,63.38094234466558L771.4333333333333,61.76752805709844L783.4869791666666,44.72313880920416L795.5406250000001,39.150170087814395L807.5942708333333,59.56018924713142L819.6479166666667,52.95856952667243L831.7015624999999,55.40116190910346L843.7552083333334,31.43087983131417L855.8088541666667,49.36944007873543L867.8625,86.86481475830085L879.9161458333333,44.278905391693186L891.9697916666668,43.39769840240487L904.0234375,53.43443512916573L916.0770833333332,25.602779388427784L928.1307291666667,65.78758120536808L940.184375,54.11253929138189L952.2380208333333,39.9694955348969L964.2916666666666,32.068017721176226L976.3453125000001,25.878134965896653L988.3989583333333,45.08180975914006L1000.4526041666667,36.1763989925385L1012.5062499999999,32.036558389663774L1024.5598958333335,29.09493803977975L1036.6135416666666,36.23326778411872L1048.6671875,32.447431087493946L1060.7208333333333,18.41691493988045L1072.7744791666667,18.122199773788502L1084.828125,7.077381610870423L1096.8817708333333,12.538859844207828L1108.9354166666667,30.933753252029476L1120.9890625,22.126696109771814L1133.0427083333334,58.64648580551152L1145.0963541666665,29.452399015426714L1157.15,20.811108350753866L1169.2036458333334,38.540515899658246L1181.2572916666666,24.283043146133497L1193.3109375,24.031887054443413L1205.3645833333335,29.9353516101838L1217.4182291666666,13.015762567520186L1229.471875,17.795333862304734L1241.5255208333333,27.395442724227973L1253.5791666666667,2.1785414218903263L1265.6328125,20.35546660423285L1277.6864583333333,23.603037595748987L1289.7401041666667,13.848916292190616L1301.79375,6.3429272174835685L1313.8473958333334,15.890661478042658" style="fill: none;" fill="none"></path></g></g></g></g></g></g><g transform="translate(51, 377)" clip-path="url(#clip_1)"><clipPath id="clip_1"><rect width="1446" height="23"></rect></clipPath><g><g><line x1="0" y1="0" x2="0" y2="5" style="visibility: inherit;" fill="rgb(0, 0, 0)" stroke="rgb(204, 204, 204)" stroke-width="1px"></line><line x1="120.53645833333333" y1="0" x2="120.53645833333333" y2="5" style="visibility: inherit;" fill="rgb(0, 0, 0)" stroke="rgb(204, 204, 204)" stroke-width="1px"></line><line x1="241.07291666666666" y1="0" x2="241.07291666666666" y2="5" style="visibility: inherit;" fill="rgb(0, 0, 0)" stroke="rgb(204, 204, 204)" stroke-width="1px"></line><line x1="361.609375" y1="0" x2="361.609375" y2="5" style="visibility: inherit;" fill="rgb(0, 0, 0)" stroke="rgb(204, 204, 204)" stroke-width="1px"></line><line x1="482.1458333333333" y1="0" x2="482.1458333333333" y2="5" style="visibility: inherit;" fill="rgb(0, 0, 0)" stroke="rgb(204, 204, 204)" stroke-width="1px"></line><line x1="602.6822916666667" y1="0" x2="602.6822916666667" y2="5" style="visibility: inherit;" fill="rgb(0, 0, 0)" stroke="rgb(204, 204, 204)" stroke-width="1px"></line><line x1="723.21875" y1="0" x2="723.21875" y2="5" style="visibility: inherit;" fill="rgb(0, 0, 0)" stroke="rgb(204, 204, 204)" stroke-width="1px"></line><line x1="843.7552083333334" y1="0" x2="843.7552083333334" y2="5" style="visibility: inherit;" fill="rgb(0, 0, 0)" stroke="rgb(204, 204, 204)" stroke-width="1px"></line><line x1="964.2916666666666" y1="0" x2="964.2916666666666" y2="5" style="visibility: inherit;" fill="rgb(0, 0, 0)" stroke="rgb(204, 204, 204)" stroke-width="1px"></line><line x1="1084.828125" y1="0" x2="1084.828125" y2="5" style="visibility: inherit;" fill="rgb(0, 0, 0)" stroke="rgb(204, 204, 204)" stroke-width="1px"></line><line x1="1205.3645833333335" y1="0" x2="1205.3645833333335" y2="5" style="visibility: inherit;" fill="rgb(0, 0, 0)" stroke="rgb(204, 204, 204)" stroke-width="1px"></line><line x1="1325.9010416666665" y1="0" x2="1325.9010416666665" y2="5" style="visibility: inherit;" fill="rgb(0, 0, 0)" stroke="rgb(204, 204, 204)" stroke-width="1px"></line><line x1="1446.4375" y1="0" x2="1446.4375" y2="5" style="visibility: inherit;" fill="rgb(0, 0, 0)" stroke="rgb(204, 204, 204)" stroke-width="1px"></line></g><g transform="translate(0, 8)"><text x="0" y="0" dx="0em" dy="0.95em" style="text-anchor: middle; visibility: hidden; font-family: Roboto, sans-serif; font-size: 12px; font-weight: 200;" fill="rgb(255, 255, 255)" stroke="none" stroke-width="1px">-10</text><text x="120.53645833333333" y="0" dx="0em" dy="0.95em" style="text-anchor: middle; visibility: inherit; font-family: Roboto, sans-serif; font-size: 12px; font-weight: 200;" fill="rgb(255, 255, 255)" stroke="none" stroke-width="1px">0</text><text x="241.07291666666666" y="0" dx="0em" dy="0.95em" style="text-anchor: middle; visibility: inherit; font-family: Roboto, sans-serif; font-size: 12px; font-weight: 200;" fill="rgb(255, 255, 255)" stroke="none" stroke-width="1px">10</text><text x="361.609375" y="0" dx="0em" dy="0.95em" style="text-anchor: middle; visibility: inherit; font-family: Roboto, sans-serif; font-size: 12px; font-weight: 200;" fill="rgb(255, 255, 255)" stroke="none" stroke-width="1px">20</text><text x="482.1458333333333" y="0" dx="0em" dy="0.95em" style="text-anchor: middle; visibility: inherit; font-family: Roboto, sans-serif; font-size: 12px; font-weight: 200;" fill="rgb(255, 255, 255)" stroke="none" stroke-width="1px">30</text><text x="602.6822916666667" y="0" dx="0em" dy="0.95em" style="text-anchor: middle; visibility: inherit; font-family: Roboto, sans-serif; font-size: 12px; font-weight: 200;" fill="rgb(255, 255, 255)" stroke="none" stroke-width="1px">40</text><text x="723.21875" y="0" dx="0em" dy="0.95em" style="text-anchor: middle; visibility: inherit; font-family: Roboto, sans-serif; font-size: 12px; font-weight: 200;" fill="rgb(255, 255, 255)" stroke="none" stroke-width="1px">50</text><text x="843.7552083333334" y="0" dx="0em" dy="0.95em" style="text-anchor: middle; visibility: inherit; font-family: Roboto, sans-serif; font-size: 12px; font-weight: 200;" fill="rgb(255, 255, 255)" stroke="none" stroke-width="1px">60</text><text x="964.2916666666666" y="0" dx="0em" dy="0.95em" style="text-anchor: middle; visibility: inherit; font-family: Roboto, sans-serif; font-size: 12px; font-weight: 200;" fill="rgb(255, 255, 255)" stroke="none" stroke-width="1px">70</text><text x="1084.828125" y="0" dx="0em" dy="0.95em" style="text-anchor: middle; visibility: inherit; font-family: Roboto, sans-serif; font-size: 12px; font-weight: 200;" fill="rgb(255, 255, 255)" stroke="none" stroke-width="1px">80</text><text x="1205.3645833333335" y="0" dx="0em" dy="0.95em" style="text-anchor: middle; visibility: inherit; font-family: Roboto, sans-serif; font-size: 12px; font-weight: 200;" fill="rgb(255, 255, 255)" stroke="none" stroke-width="1px">90</text><text x="1325.9010416666665" y="0" dx="0em" dy="0.95em" style="text-anchor: middle; visibility: inherit; font-family: Roboto, sans-serif; font-size: 12px; font-weight: 200;" fill="rgb(255, 255, 255)" stroke="none" stroke-width="1px">100</text><text x="1446.4375" y="0" dx="0em" dy="0.95em" style="text-anchor: middle; visibility: hidden; font-family: Roboto, sans-serif; font-size: 12px; font-weight: 200;" fill="rgb(255, 255, 255)" stroke="none" stroke-width="1px">110</text></g><line x1="0" y1="0" x2="1446.4375" y2="0" fill="rgb(0, 0, 0)" stroke="rgb(204, 204, 204)" stroke-width="1px"></line></g></g></g></g></svg>