<svg viewBox="0 0 1498 400" xmlns="http://www.w3.org/2000/svg"><g><g><g><g><g><line x1="61.953125" y1="377" x2="56.953125" y2="377" style="visibility: inherit;" fill="rgb(0, 0, 0)" stroke="rgb(204, 204, 204)" stroke-width="1px"></line><line x1="61.953125" y1="347.999999999997" x2="56.953125" y2="347.999999999997" style="visibility: inherit;" fill="rgb(0, 0, 0)" stroke="rgb(204, 204, 204)" stroke-width="1px"></line><line x1="61.953125" y1="319.0000000000005" x2="56.953125" y2="319.0000000000005" style="visibility: inherit;" fill="rgb(0, 0, 0)" stroke="rgb(204, 204, 204)" stroke-width="1px"></line><line x1="61.953125" y1="289.99999999999756" x2="56.953125" y2="289.99999999999756" style="visibility: inherit;" fill="rgb(0, 0, 0)" stroke="rgb(204, 204, 204)" stroke-width="1px"></line><line x1="61.953125" y1="261.000000000001" x2="56.953125" y2="261.000000000001" style="visibility: inherit;" fill="rgb(0, 0, 0)" stroke="rgb(204, 204, 204)" stroke-width="1px"></line><line x1="61.953125" y1="231.999999999998" x2="56.953125" y2="231.999999999998" style="visibility: inherit;" fill="rgb(0, 0, 0)" stroke="rgb(204, 204, 204)" stroke-width="1px"></line><line x1="61.953125" y1="203.00000000000145" x2="56.953125" y2="203.00000000000145" style="visibility: inherit;" fill="rgb(0, 0, 0)" stroke="rgb(204, 204, 204)" stroke-width="1px"></line><line x1="61.953125" y1="173.9999999999985" x2="56.953125" y2="173.9999999999985" style="visibility: inherit;" fill="rgb(0, 0, 0)" stroke="rgb(204, 204, 204)" stroke-width="1px"></line><line x1="61.953125" y1="145.000000000002" x2="56.953125" y2="145.000000000002" style="visibility: inherit;" fill="rgb(0, 0, 0)" stroke="rgb(204, 204, 204)" stroke-width="1px"></line><line x1="61.953125" y1="115.999999999999" x2="56.953125" y2="115.999999999999" style="visibility: inherit;" fill="rgb(0, 0, 0)" stroke="rgb(204, 204, 204)" stroke-width="1px"></line><line x1="61.953125" y1="87.0000000000025" x2="56.953125" y2="87.0000000000025" style="visibility: inherit;" fill="rgb(0, 0, 0)" stroke="rgb(204, 204, 204)" stroke-width="1px"></line><line x1="61.953125" y1="57.9999999999995" x2="56.953125" y2="57.9999999999995" style="visibility: inherit;" fill="rgb(0, 0, 0)" stroke="rgb(204, 204, 204)" stroke-width="1px"></line><line x1="61.953125" y1="29.000000000002952" x2="56.953125" y2="29.000000000002952" style="visibility: inherit;" fill="rgb(0, 0, 0)" stroke="rgb(204, 204, 204)" stroke-width="1px"></line><line x1="61.953125" y1="0" x2="56.953125" y2="0" style="visibility: inherit;" fill="rgb(0, 0, 0)" stroke="rgb(204, 204, 204)" stroke-width="1px"></line></g><g transform="translate(51.953125, 0)"><text x="0" y="377" dx="0em" dy="0.3em" style="text-anchor: end; visibility: hidden; font-family: Roboto, sans-serif; font-size: 12px; font-weight: 200;" fill="rgb(255, 255, 255)" stroke="none" stroke-width="1px">0.991</text><text x="0" y="347.999999999997" dx="0em" dy="0.3em" style="text-anchor: end; visibility: inherit; font-family: Roboto, sans-serif; font-size: 12px; font-weight: 200;" fill="rgb(255, 255, 255)" stroke="none" stroke-width="1px">0.992</text><text x="0" y="319.0000000000005" dx="0em" dy="0.3em" style="text-anchor: end; visibility: inherit; font-family: Roboto, sans-serif; font-size: 12px; font-weight: 200;" fill="rgb(255, 255, 255)" stroke="none" stroke-width="1px">0.992</text><text x="0" y="289.99999999999756" dx="0em" dy="0.3em" style="text-anchor: end; visibility: inherit; font-family: Roboto, sans-serif; font-size: 12px; font-weight: 200;" fill="rgb(255, 255, 255)" stroke="none" stroke-width="1px">0.993</text><text x="0" y="261.000000000001" dx="0em" dy="0.3em" style="text-anchor: end; visibility: inherit; font-family: Roboto, sans-serif; font-size: 12px; font-weight: 200;" fill="rgb(255, 255, 255)" stroke="none" stroke-width="1px">0.993</text><text x="0" y="231.999999999998" dx="0em" dy="0.3em" style="text-anchor: end; visibility: inherit; font-family: Roboto, sans-serif; font-size: 12px; font-weight: 200;" fill="rgb(255, 255, 255)" stroke="none" stroke-width="1px">0.994</text><text x="0" y="203.00000000000145" dx="0em" dy="0.3em" style="text-anchor: end; visibility: inherit; font-family: Roboto, sans-serif; font-size: 12px; font-weight: 200;" fill="rgb(255, 255, 255)" stroke="none" stroke-width="1px">0.994</text><text x="0" y="173.9999999999985" dx="0em" dy="0.3em" style="text-anchor: end; visibility: inherit; font-family: Roboto, sans-serif; font-size: 12px; font-weight: 200;" fill="rgb(255, 255, 255)" stroke="none" stroke-width="1px">0.995</text><text x="0" y="145.000000000002" dx="0em" dy="0.3em" style="text-anchor: end; visibility: inherit; font-family: Roboto, sans-serif; font-size: 12px; font-weight: 200;" fill="rgb(255, 255, 255)" stroke="none" stroke-width="1px">0.995</text><text x="0" y="115.999999999999" dx="0em" dy="0.3em" style="text-anchor: end; visibility: inherit; font-family: Roboto, sans-serif; font-size: 12px; font-weight: 200;" fill="rgb(255, 255, 255)" stroke="none" stroke-width="1px">0.996</text><text x="0" y="87.0000000000025" dx="0em" dy="0.3em" style="text-anchor: end; visibility: inherit; font-family: Roboto, sans-serif; font-size: 12px; font-weight: 200;" fill="rgb(255, 255, 255)" stroke="none" stroke-width="1px">0.996</text><text x="0" y="57.9999999999995" dx="0em" dy="0.3em" style="text-anchor: end; visibility: inherit; font-family: Roboto, sans-serif; font-size: 12px; font-weight: 200;" fill="rgb(255, 255, 255)" stroke="none" stroke-width="1px">0.997</text><text x="0" y="29.000000000002952" dx="0em" dy="0.3em" style="text-anchor: end; visibility: inherit; font-family: Roboto, sans-serif; font-size: 12px; font-weight: 200;" fill="rgb(255, 255, 255)" stroke="none" stroke-width="1px">0.997</text><text x="0" y="0" dx="0em" dy="0.3em" style="text-anchor: end; visibility: hidden; font-family: Roboto, sans-serif; font-size: 12px; font-weight: 200;" fill="rgb(255, 255, 255)" stroke="none" stroke-width="1px">0.998</text></g><line x1="61.953125" y1="0" x2="61.953125" y2="377" fill="rgb(0, 0, 0)" stroke="rgb(204, 204, 204)" stroke-width="1px"></line></g></g><g transform="translate(61, 0)" clip-path="url(#clip_0)"><clipPath id="clip_0"><rect width="1436" height="377"></rect></clipPath><g><g><g><line x1="0" y1="0" x2="0" y2="377" fill="rgb(0, 0, 0)" stroke="rgb(189, 189, 189)" stroke-width="1px" opacity="0.25"></line><line x1="119.67057291666666" y1="0" x2="119.67057291666666" y2="377" fill="rgb(0, 0, 0)" stroke="rgb(189, 189, 189)" stroke-width="1px" opacity="0.25"></line><line x1="239.34114583333331" y1="0" x2="239.34114583333331" y2="377" fill="rgb(0, 0, 0)" stroke="rgb(189, 189, 189)" stroke-width="1px" opacity="0.25"></line><line x1="359.01171875" y1="0" x2="359.01171875" y2="377" fill="rgb(0, 0, 0)" stroke="rgb(189, 189, 189)" stroke-width="1px" opacity="0.25"></line><line x1="478.68229166666663" y1="0" x2="478.68229166666663" y2="377" fill="rgb(0, 0, 0)" stroke="rgb(189, 189, 189)" stroke-width="1px" opacity="0.25"></line><line x1="598.3528645833334" y1="0" x2="598.3528645833334" y2="377" fill="rgb(0, 0, 0)" stroke="rgb(189, 189, 189)" stroke-width="1px" opacity="0.25"></line><line x1="718.0234375" y1="0" x2="718.0234375" y2="377" fill="rgb(0, 0, 0)" stroke="rgb(189, 189, 189)" stroke-width="1px" opacity="0.25"></line><line x1="837.6940104166667" y1="0" x2="837.6940104166667" y2="377" fill="rgb(0, 0, 0)" stroke="rgb(189, 189, 189)" stroke-width="1px" opacity="0.25"></line><line x1="957.3645833333333" y1="0" x2="957.3645833333333" y2="377" fill="rgb(0, 0, 0)" stroke="rgb(189, 189, 189)" stroke-width="1px" opacity="0.25"></line><line x1="1077.03515625" y1="0" x2="1077.03515625" y2="377" fill="rgb(0, 0, 0)" stroke="rgb(189, 189, 189)" stroke-width="1px" opacity="0.25"></line><line x1="1196.7057291666667" y1="0" x2="1196.7057291666667" y2="377" fill="rgb(0, 0, 0)" stroke="rgb(189, 189, 189)" stroke-width="1px" opacity="0.25"></line><line x1="1316.3763020833333" y1="0" x2="1316.3763020833333" y2="377" fill="rgb(0, 0, 0)" stroke="rgb(189, 189, 189)" stroke-width="1px" opacity="0.25"></line><line x1="1436.046875" y1="0" x2="1436.046875" y2="377" fill="rgb(0, 0, 0)" stroke="rgb(189, 189, 189)" stroke-width="1px" opacity="0.25"></line></g><g><line x1="0" y1="377" x2="1436.046875" y2="377" fill="rgb(0, 0, 0)" stroke="rgb(189, 189, 189)" stroke-width="1px" opacity="0.25"></line><line x1="0" y1="347.999999999997" x2="1436.046875" y2="347.999999999997" fill="rgb(0, 0, 0)" stroke="rgb(189, 189, 189)" stroke-width="1px" opacity="0.25"></line><line x1="0" y1="319.0000000000005" x2="1436.046875" y2="319.0000000000005" fill="rgb(0, 0, 0)" stroke="rgb(189, 189, 189)" stroke-width="1px" opacity="0.25"></line><line x1="0" y1="289.99999999999756" x2="1436.046875" y2="289.99999999999756" fill="rgb(0, 0, 0)" stroke="rgb(189, 189, 189)" stroke-width="1px" opacity="0.25"></line><line x1="0" y1="261.000000000001" x2="1436.046875" y2="261.000000000001" fill="rgb(0, 0, 0)" stroke="rgb(189, 189, 189)" stroke-width="1px" opacity="0.25"></line><line x1="0" y1="231.999999999998" x2="1436.046875" y2="231.999999999998" fill="rgb(0, 0, 0)" stroke="rgb(189, 189, 189)" stroke-width="1px" opacity="0.25"></line><line x1="0" y1="203.00000000000145" x2="1436.046875" y2="203.00000000000145" fill="rgb(0, 0, 0)" stroke="rgb(189, 189, 189)" stroke-width="1px" opacity="0.25"></line><line x1="0" y1="173.9999999999985" x2="1436.046875" y2="173.9999999999985" fill="rgb(0, 0, 0)" stroke="rgb(189, 189, 189)" stroke-width="1px" opacity="0.25"></line><line x1="0" y1="145.000000000002" x2="1436.046875" y2="145.000000000002" fill="rgb(0, 0, 0)" stroke="rgb(189, 189, 189)" stroke-width="1px" opacity="0.25"></line><line x1="0" y1="115.999999999999" x2="1436.046875" y2="115.999999999999" fill="rgb(0, 0, 0)" stroke="rgb(189, 189, 189)" stroke-width="1px" opacity="0.25"></line><line x1="0" y1="87.0000000000025" x2="1436.046875" y2="87.0000000000025" fill="rgb(0, 0, 0)" stroke="rgb(189, 189, 189)" stroke-width="1px" opacity="0.25"></line><line x1="0" y1="57.9999999999995" x2="1436.046875" y2="57.9999999999995" fill="rgb(0, 0, 0)" stroke="rgb(189, 189, 189)" stroke-width="1px" opacity="0.25"></line><line x1="0" y1="29.000000000002952" x2="1436.046875" y2="29.000000000002952" fill="rgb(0, 0, 0)" stroke="rgb(189, 189, 189)" stroke-width="1px" opacity="0.25"></line><line x1="0" y1="0" x2="1436.046875" y2="0" fill="rgb(0, 0, 0)" stroke="rgb(189, 189, 189)" stroke-width="1px" opacity="0.25"></line></g></g></g><g><g><line x1="0" y1="57854.99999999946" x2="1436.046875" y2="57854.99999999946" fill="rgb(0, 0, 0)" stroke="rgb(153, 153, 153)" stroke-width="1.5px"></line></g></g><g><g><line x1="119.67057291666666" y1="0" x2="119.67057291666666" y2="377" fill="rgb(0, 0, 0)" stroke="rgb(153, 153, 153)" stroke-width="1.5px"></line></g></g><g><g><g><g><g><path stroke="rgb(0, 119, 187)" stroke-width="2px" d="M155.57174479166667,391.77629370299303L167.53880208333334,336.18447187051464L179.505859375,294.75546075915946L191.47291666666666,313.75216318157794L203.43997395833333,312.22157659010503L215.40703125,318.78812165958544L227.37408854166665,277.68073846941184L239.34114583333331,239.3757949695505L251.30820312499998,287.4864137523891L263.27526041666664,320.2103515659905L275.24231770833336,264.89596439357706L287.209375,239.1855727182046L299.1764322916667,215.04578517879787L311.14348958333335,191.19908239471647L323.110546875,177.69064087164023L335.0776041666667,165.99803428233062L347.04466145833334,151.44181577954885L359.01171875,191.57544543403122L370.9787760416667,186.50131580971907L382.9458333333333,174.35346402390854L394.91289062500005,152.03871657488276L406.87994791666665,147.5534846983028L418.84700520833337,128.70960859802227L430.8140625,142.01064117569405L442.7811197916667,142.2726599645403L454.7481770833333,172.11867750389024L466.715234375,145.72492148591306L478.68229166666663,139.62990222428084L490.64934895833335,127.60361411543808L502.61640624999995,117.49579730313275L514.5834635416667,100.43594922989203L526.5505208333333,95.1410351727495L538.517578125,84.98888257945457L550.4846354166667,92.10963929885698L562.4516927083333,85.1205868471748L574.41875,96.11799728413483L586.3858072916667,91.42154068828768L598.3528645833334,84.10584353954705L610.319921875,83.96926140980564L622.2869791666667,79.46588949700589L634.2540364583333,93.3264621767016L646.22109375,91.49711435042488L658.1881510416666,84.50825755601375L670.1552083333333,84.06634373497033L682.122265625,73.254081151622L694.0893229166667,73.821710580479L706.0563802083333,71.31926131091613L718.0234375,81.9113589894075L729.9904947916666,77.02246291102892L741.9575520833334,76.54980730583122L753.924609375,69.64463948306856L765.8916666666667,68.5633251571496L777.8587239583333,57.76085285570332L789.8257812500001,73.52915511636392L801.7928385416667,74.55771365149472L813.7598958333333,74.24473228897918L825.7269531249999,66.8829942506102L837.6940104166667,74.13892823050466L849.6610677083333,67.60232883839538L861.628125,60.09788007112945L873.5951822916666,54.415397915547196L885.5622395833334,67.69327659652528L897.529296875,60.95390380851705L909.4963541666666,57.88847632199947L921.4634114583334,62.81272970545247L933.43046875,56.283641914750696L945.3975260416667,58.59768845854786L957.3645833333333,47.85711511713408L969.3316406250001,48.99867261767742L981.2986979166667,86.55021333438792L993.2657552083333,75.84945206460043L1005.2328124999999,67.4949975334625L1017.1998697916667,59.56122939447037L1029.1669270833333,54.16523406168754L1041.133984375,53.92773068430882L1053.1010416666666,46.71527947522124L1065.0680989583334,40.43342697497851L1077.03515625,41.96638706836381L1089.0022135416666,38.214773083324985L1100.9692708333334,49.07328818362598L1112.936328125,44.724542676256604L1124.9033854166667,48.50778717318313L1136.8704427083333,50.21124125483653L1148.8375,43.15128875448764L1160.8045572916667,42.003109960485666L1172.7716145833333,38.280926819753546L1184.738671875,36.159734043760814L1196.7057291666667,33.266489028235405L1208.6727864583333,31.83445062588422L1220.63984375,35.3663159653109L1232.6069010416666,36.832614508387366L1244.5739583333334,37.97932950356516L1256.541015625,35.54206456133722L1268.5080729166666,71.76971018088341L1280.4751302083334,58.55335324844026L1292.4421875,55.09214892872785L1304.4092447916667,46.17692957740815" style="fill: none;" fill="none"></path></g><g><path stroke="rgb(255, 112, 67)" stroke-width="2px" d="M167.53880208333334,431.58210316486935L179.505859375,374.77767136491605L191.47291666666666,341.70232127269986L203.43997395833333,310.1582707499457L215.40703125,287.0747496530847L227.37408854166665,262.0324090508248L239.34114583333331,242.2743794762327L251.30820312499998,228.61004549782933L263.27526041666664,224.12112333531542L275.24231770833336,211.34024586602052L287.209375,207.8797304046998L299.1764322916667,204.41687271523517L311.14348958333335,194.17206522826874L323.110546875,184.84902810911686L335.0776041666667,176.60706840295424L347.04466145833334,169.56581454861538L359.01171875,161.3689720923719L370.9787760416667,154.05855303904758L382.9458333333333,148.6709177618552L394.91289062500005,145.63993406054206L406.87994791666665,143.13164370473496L418.84700520833337,138.27058077092815L430.8140625,131.36444510320842L442.7811197916667,130.51414590780638L454.7481770833333,126.20801863969047L466.715234375,120.40699381308424L478.68229166666663,118.29823529625136L490.64934895833335,115.87418240491569L502.61640624999995,111.08671510012164L514.5834635416667,109.91969512810502L526.5505208333333,104.14429094884115L538.517578125,100.59000438246228L550.4846354166667,102.86655047966747L562.4516927083333,101.35706106988145L574.41875,102.27924780597746L586.3858072916667,96.13474376780948L598.3528645833334,94.28534764526322L610.319921875,92.5074723273689L622.2869791666667,87.76163923783716L634.2540364583333,87.0925120645217L646.22109375,85.52996051413227L658.1881510416666,82.29763122498736L670.1552083333333,79.95929102229516L682.122265625,77.53424109150758L694.0893229166667,75.74129106753828L706.0563802083333,76.28874209025243L718.0234375,75.53527336909633L729.9904947916666,76.20883118822005L741.9575520833334,75.56437965035506L753.924609375,73.84382768782012L765.8916666666667,72.47246486544822L777.8587239583333,69.30240642175202L789.8257812500001,65.68843801083784L801.7928385416667,66.5448596037697L813.7598958333333,66.53349055549734L825.7269531249999,66.07023618188262L837.6940104166667,63.16249015919814L849.6610677083333,62.67548932713225L861.628125,70.69378254810043L873.5951822916666,67.85301600460693L885.5622395833334,64.81283891369642L897.529296875,64.83674064993534L909.4963541666666,60.717434038584834L921.4634114583334,62.90544021622952L933.43046875,63.89877883543288L945.3975260416667,61.33548225523152L957.3645833333333,58.95727562795026L969.3316406250001,56.109176134274826L981.2986979166667,56.53510935966569L993.2657552083333,56.903786833142036L1005.2328124999999,55.29608071102291L1017.1998697916667,54.27025002417554L1029.1669270833333,54.13399332289739L1041.133984375,53.36033661631216L1053.1010416666666,50.87521250672708L1065.0680989583334,48.03420332013751L1077.03515625,45.357885786461175L1089.0022135416666,44.04554587603183L1100.9692708333334,45.35671769977159L1112.936328125,45.153410370949246L1124.9033854166667,50.67584915465681L1136.8704427083333,49.48144382689552L1148.8375,47.51386128384062L1160.8045572916667,49.58186886472957L1172.7716145833333,47.88907233113226L1184.738671875,46.26644977196449L1196.7057291666667,46.93105572248847L1208.6727864583333,44.75680740325762L1220.63984375,44.97304807260738L1232.6069010416666,44.82157726196712L1244.5739583333334,42.30839027341142L1256.541015625,41.79059300187143L1268.5080729166666,42.06077861144137L1280.4751302083334,40.706672759336875L1292.4421875,39.64782673521834L1304.4092447916667,38.970936009117125" style="fill: none;" fill="none"></path></g></g></g></g><g opacity="0.2"><g><g><g><path stroke="rgb(0, 119, 187)" stroke-width="2px" d="M143.6046875,470.22006988525254L155.57174479166667,304.6264457702639L167.53880208333334,237.61461257934658L179.505859375,214.33470726013292L191.47291666666666,352.8629350662229L203.43997395833333,308.9443254470827L215.40703125,333.2267808914184L227.37408854166665,185.6341171264662L239.34114583333331,152.5223064422624L251.30820312499998,397.52481460571227L263.27526041666664,395.5093431472772L275.24231770833336,137.07957744598568L287.209375,179.60153102874898L299.1764322916667,158.9870262146012L311.14348958333335,135.7416915893573L323.110546875,146.2442684173601L335.0776041666667,138.75971317291436L347.04466145833334,117.5160217285176L359.01171875,285.14585971832315L370.9787760416667,174.66829299926903L382.9458333333333,146.01955890655688L394.91289062500005,99.98522281646943L406.87994791666665,137.0899486541766L418.84700520833337,84.74646091461413L430.8140625,173.04347038269188L442.7811197916667,142.8839969635027L454.7481770833333,241.75618171691977L466.715234375,84.14147377014389L478.68229166666663,125.4085111618061L490.64934895833335,99.54271793365692L502.61640624999995,93.91115188598852L514.5834635416667,60.629944801333075L526.5505208333333,82.78630256653062L538.517578125,61.30061626434577L550.4846354166667,108.72469425201623L562.4516927083333,68.8128280639673L574.41875,121.77858829498484L586.3858072916667,80.46315193176503L598.3528645833334,67.03589439392334L610.319921875,83.65056991577377L622.2869791666667,68.95802497864014L634.2540364583333,125.66779136657907L646.22109375,87.22863674164044L658.1881510416666,68.20092678070313L670.1552083333333,83.03521156311267L682.122265625,48.02546977997091L694.0893229166667,75.14617919922112L706.0563802083333,65.48021316528568L718.0234375,106.62625312805382L729.9904947916666,65.61503887176761L741.9575520833334,75.44694423675776L753.924609375,53.53258132934829L765.8916666666667,66.04025840759526L777.8587239583333,32.55508422851841L789.8257812500001,110.32186031341759L801.7928385416667,76.9576835632348L813.7598958333333,73.51444244385004L825.7269531249999,49.70560550689961L837.6940104166667,91.06944084167705L849.6610677083333,52.350263595583655L861.628125,42.587499618532966L873.5951822916666,41.15627288818628L885.5622395833334,98.6749935150168L897.529296875,45.22870063782004L909.4963541666666,50.73581218719742L921.4634114583334,74.3026542663598L933.43046875,41.04910373688014L945.3975260416667,63.99713039398444L957.3645833333333,22.79577732086469L969.3316406250001,51.662306785586104L981.2986979166667,174.17047500610497L993.2657552083333,50.881009101870305L1005.2328124999999,48.00127029419208L1017.1998697916667,41.04910373688014L1029.1669270833333,41.57457828522L1041.133984375,53.37355613708757L1053.1010416666666,29.886226654055534L1065.0680989583334,25.77577114105511L1077.03515625,45.54329395294455L1089.0022135416666,29.46100711822792L1100.9692708333334,74.40982341766598L1112.936328125,34.577469825747414L1124.9033854166667,57.33535766601818L1136.8704427083333,54.1859674453761L1148.8375,26.67806625366497L1160.8045572916667,39.3240261077908L1172.7716145833333,29.595832824709852L1184.738671875,31.210284233096043L1196.7057291666667,26.515583992007237L1208.6727864583333,28.493027687075596L1220.63984375,43.60733509063987L1232.6069010416666,40.25397777557646L1244.5739583333334,40.65499782562525L1256.541015625,29.855113029482812L1268.5080729166666,156.3008832931535L1280.4751302083334,27.71518707275672L1292.4421875,47.016005516054875L1304.4092447916667,25.374751091006278" style="fill: none;" fill="none"></path></g><g><path stroke="rgb(255, 112, 67)" stroke-width="2px" d="M131.63763020833332,464.81321334838736L143.6046875,359.0787458419797L155.57174479166667,344.6005392074583L167.53880208333334,290.96756458282505L179.505859375,264.5106124877936L191.47291666666666,273.6061620712286L203.43997395833333,242.6169919967659L215.40703125,236.3182115554818L227.37408854166665,205.95822811126826L239.34114583333331,197.4745798110974L251.30820312499998,197.35703945160037L263.27526041666664,213.7919473648082L275.24231770833336,181.80714130401748L287.209375,199.85995769500852L299.1764322916667,196.3752317428601L311.14348958333335,170.34695625305324L323.110546875,163.14588069915925L335.0776041666667,157.40714550018473L347.04466145833334,153.1549501419084L359.01171875,142.25826740265066L370.9787760416667,137.01043605804625L382.9458333333333,136.10468387603942L394.91289062500005,138.5695743560809L406.87994791666665,137.28008747101012L418.84700520833337,126.92962169647407L430.8140625,115.25164127350052L442.7811197916667,128.53024482727238L454.7481770833333,116.16085052490432L466.715234375,106.8717050552389L478.68229166666663,113.37790966034137L490.64934895833335,110.21814823150842L502.61640624999995,99.91608142852999L514.5834635416667,107.19666957855432L526.5505208333333,90.66842079162821L538.517578125,92.29670047760233L550.4846354166667,108.17847728729457L562.4516927083333,97.83492565155247L574.41875,104.43101406097622L586.3858072916667,81.79758071899647L598.3528645833334,89.97009277343976L610.319921875,88.3590984344505L622.2869791666667,76.68803215027093L634.2540364583333,85.5312156677269L646.22109375,81.88400745392076L658.1881510416666,74.75553035736321L670.1552083333333,74.50316429138422L682.122265625,71.87579154968503L694.0893229166667,71.55774116516355L706.0563802083333,77.56612777710195L718.0234375,73.77717971801998L729.9904947916666,77.78046607971427L741.9575520833334,74.06065940857172L753.924609375,69.82920646667723L765.8916666666667,69.27261829376465L777.8587239583333,61.90560340881596L789.8257812500001,57.255845069887805L801.7928385416667,68.54317665100344L813.7598958333333,66.50696277618655L825.7269531249999,64.98930931091554L837.6940104166667,56.37774944305677L849.6610677083333,61.53915405273687L861.628125,89.40313339233623L873.5951822916666,61.22456073761236L885.5622395833334,57.71909236908213L897.529296875,64.89251136780032L909.4963541666666,51.10571861267353L921.4634114583334,68.01078796386965L933.43046875,66.21656894684082L945.3975260416667,55.35445690155286L957.3645833333333,53.40812683105726L969.3316406250001,49.463610649111494L981.2986979166667,57.52895355224864L993.2657552083333,57.76403427124277L1005.2328124999999,51.54476642608902L1017.1998697916667,51.87664508819842L1029.1669270833333,53.81606101990003L1041.133984375,51.55513763427993L1053.1010416666666,45.076589584353265L1065.0680989583334,41.40518188476833L1077.03515625,39.11314487457546L1089.0022135416666,40.98341941833768L1100.9692708333334,48.416118621828794L1112.936328125,44.6790266037014L1124.9033854166667,63.56153964996587L1136.8704427083333,46.694498062136425L1148.8375,42.92283535003929L1160.8045572916667,54.40721988678235L1172.7716145833333,43.93921375274927L1184.738671875,42.48033046722683L1196.7057291666667,48.481802940371296L1208.6727864583333,39.68356132507596L1220.63984375,45.47760963440209L1232.6069010416666,44.468145370486056L1244.5739583333334,36.44428730011263L1256.541015625,40.58239936828885L1268.5080729166666,42.69121170044213L1280.4751302083334,37.54709243774688L1292.4421875,37.177186012270816L1304.4092447916667,37.39152431488313" style="fill: none;" fill="none"></path></g></g></g></g></g></g><g transform="translate(61, 377)" clip-path="url(#clip_1)"><clipPath id="clip_1"><rect width="1436" height="23"></rect></clipPath><g><g><line x1="0" y1="0" x2="0" y2="5" style="visibility: inherit;" fill="rgb(0, 0, 0)" stroke="rgb(204, 204, 204)" stroke-width="1px"></line><line x1="119.67057291666666" y1="0" x2="119.67057291666666" y2="5" style="visibility: inherit;" fill="rgb(0, 0, 0)" stroke="rgb(204, 204, 204)" stroke-width="1px"></line><line x1="239.34114583333331" y1="0" x2="239.34114583333331" y2="5" style="visibility: inherit;" fill="rgb(0, 0, 0)" stroke="rgb(204, 204, 204)" stroke-width="1px"></line><line x1="359.01171875" y1="0" x2="359.01171875" y2="5" style="visibility: inherit;" fill="rgb(0, 0, 0)" stroke="rgb(204, 204, 204)" stroke-width="1px"></line><line x1="478.68229166666663" y1="0" x2="478.68229166666663" y2="5" style="visibility: inherit;" fill="rgb(0, 0, 0)" stroke="rgb(204, 204, 204)" stroke-width="1px"></line><line x1="598.3528645833334" y1="0" x2="598.3528645833334" y2="5" style="visibility: inherit;" fill="rgb(0, 0, 0)" stroke="rgb(204, 204, 204)" stroke-width="1px"></line><line x1="718.0234375" y1="0" x2="718.0234375" y2="5" style="visibility: inherit;" fill="rgb(0, 0, 0)" stroke="rgb(204, 204, 204)" stroke-width="1px"></line><line x1="837.6940104166667" y1="0" x2="837.6940104166667" y2="5" style="visibility: inherit;" fill="rgb(0, 0, 0)" stroke="rgb(204, 204, 204)" stroke-width="1px"></line><line x1="957.3645833333333" y1="0" x2="957.3645833333333" y2="5" style="visibility: inherit;" fill="rgb(0, 0, 0)" stroke="rgb(204, 204, 204)" stroke-width="1px"></line><line x1="1077.03515625" y1="0" x2="1077.03515625" y2="5" style="visibility: inherit;" fill="rgb(0, 0, 0)" stroke="rgb(204, 204, 204)" stroke-width="1px"></line><line x1="1196.7057291666667" y1="0" x2="1196.7057291666667" y2="5" style="visibility: inherit;" fill="rgb(0, 0, 0)" stroke="rgb(204, 204, 204)" stroke-width="1px"></line><line x1="1316.3763020833333" y1="0" x2="1316.3763020833333" y2="5" style="visibility: inherit;" fill="rgb(0, 0, 0)" stroke="rgb(204, 204, 204)" stroke-width="1px"></line><line x1="1436.046875" y1="0" x2="1436.046875" y2="5" style="visibility: inherit;" fill="rgb(0, 0, 0)" stroke="rgb(204, 204, 204)" stroke-width="1px"></line></g><g transform="translate(0, 8)"><text x="0" y="0" dx="0em" dy="0.95em" style="text-anchor: middle; visibility: hidden; font-family: Roboto, sans-serif; font-size: 12px; font-weight: 200;" fill="rgb(255, 255, 255)" stroke="none" stroke-width="1px">-10</text><text x="119.67057291666666" y="0" dx="0em" dy="0.95em" style="text-anchor: middle; visibility: inherit; font-family: Roboto, sans-serif; font-size: 12px; font-weight: 200;" fill="rgb(255, 255, 255)" stroke="none" stroke-width="1px">0</text><text x="239.34114583333331" y="0" dx="0em" dy="0.95em" style="text-anchor: middle; visibility: inherit; font-family: Roboto, sans-serif; font-size: 12px; font-weight: 200;" fill="rgb(255, 255, 255)" stroke="none" stroke-width="1px">10</text><text x="359.01171875" y="0" dx="0em" dy="0.95em" style="text-anchor: middle; visibility: inherit; font-family: Roboto, sans-serif; font-size: 12px; font-weight: 200;" fill="rgb(255, 255, 255)" stroke="none" stroke-width="1px">20</text><text x="478.68229166666663" y="0" dx="0em" dy="0.95em" style="text-anchor: middle; visibility: inherit; font-family: Roboto, sans-serif; font-size: 12px; font-weight: 200;" fill="rgb(255, 255, 255)" stroke="none" stroke-width="1px">30</text><text x="598.3528645833334" y="0" dx="0em" dy="0.95em" style="text-anchor: middle; visibility: inherit; font-family: Roboto, sans-serif; font-size: 12px; font-weight: 200;" fill="rgb(255, 255, 255)" stroke="none" stroke-width="1px">40</text><text x="718.0234375" y="0" dx="0em" dy="0.95em" style="text-anchor: middle; visibility: inherit; font-family: Roboto, sans-serif; font-size: 12px; font-weight: 200;" fill="rgb(255, 255, 255)" stroke="none" stroke-width="1px">50</text><text x="837.6940104166667" y="0" dx="0em" dy="0.95em" style="text-anchor: middle; visibility: inherit; font-family: Roboto, sans-serif; font-size: 12px; font-weight: 200;" fill="rgb(255, 255, 255)" stroke="none" stroke-width="1px">60</text><text x="957.3645833333333" y="0" dx="0em" dy="0.95em" style="text-anchor: middle; visibility: inherit; font-family: Roboto, sans-serif; font-size: 12px; font-weight: 200;" fill="rgb(255, 255, 255)" stroke="none" stroke-width="1px">70</text><text x="1077.03515625" y="0" dx="0em" dy="0.95em" style="text-anchor: middle; visibility: inherit; font-family: Roboto, sans-serif; font-size: 12px; font-weight: 200;" fill="rgb(255, 255, 255)" stroke="none" stroke-width="1px">80</text><text x="1196.7057291666667" y="0" dx="0em" dy="0.95em" style="text-anchor: middle; visibility: inherit; font-family: Roboto, sans-serif; font-size: 12px; font-weight: 200;" fill="rgb(255, 255, 255)" stroke="none" stroke-width="1px">90</text><text x="1316.3763020833333" y="0" dx="0em" dy="0.95em" style="text-anchor: middle; visibility: inherit; font-family: Roboto, sans-serif; font-size: 12px; font-weight: 200;" fill="rgb(255, 255, 255)" stroke="none" stroke-width="1px">100</text><text x="1436.046875" y="0" dx="0em" dy="0.95em" style="text-anchor: middle; visibility: hidden; font-family: Roboto, sans-serif; font-size: 12px; font-weight: 200;" fill="rgb(255, 255, 255)" stroke="none" stroke-width="1px">110</text></g><line x1="0" y1="0" x2="1436.046875" y2="0" fill="rgb(0, 0, 0)" stroke="rgb(204, 204, 204)" stroke-width="1px"></line></g></g></g></g></svg>