<svg viewBox="0 0 1498 400" xmlns="http://www.w3.org/2000/svg"><g><g><g><g><g><line x1="61.953125" y1="377" x2="56.953125" y2="377" style="visibility: inherit;" fill="rgb(0, 0, 0)" stroke="rgb(204, 204, 204)" stroke-width="1px"></line><line x1="61.953125" y1="329.87499999999994" x2="56.953125" y2="329.87499999999994" style="visibility: inherit;" fill="rgb(0, 0, 0)" stroke="rgb(204, 204, 204)" stroke-width="1px"></line><line x1="61.953125" y1="282.75" x2="56.953125" y2="282.75" style="visibility: inherit;" fill="rgb(0, 0, 0)" stroke="rgb(204, 204, 204)" stroke-width="1px"></line><line x1="61.953125" y1="235.625" x2="56.953125" y2="235.625" style="visibility: inherit;" fill="rgb(0, 0, 0)" stroke="rgb(204, 204, 204)" stroke-width="1px"></line><line x1="61.953125" y1="188.49999999999997" x2="56.953125" y2="188.49999999999997" style="visibility: inherit;" fill="rgb(0, 0, 0)" stroke="rgb(204, 204, 204)" stroke-width="1px"></line><line x1="61.953125" y1="141.375" x2="56.953125" y2="141.375" style="visibility: inherit;" fill="rgb(0, 0, 0)" stroke="rgb(204, 204, 204)" stroke-width="1px"></line><line x1="61.953125" y1="94.24999999999996" x2="56.953125" y2="94.24999999999996" style="visibility: inherit;" fill="rgb(0, 0, 0)" stroke="rgb(204, 204, 204)" stroke-width="1px"></line><line x1="61.953125" y1="47.12500000000004" x2="56.953125" y2="47.12500000000004" style="visibility: inherit;" fill="rgb(0, 0, 0)" stroke="rgb(204, 204, 204)" stroke-width="1px"></line><line x1="61.953125" y1="0" x2="56.953125" y2="0" style="visibility: inherit;" fill="rgb(0, 0, 0)" stroke="rgb(204, 204, 204)" stroke-width="1px"></line></g><g transform="translate(51.953125, 0)"><text x="0" y="377" dx="0em" dy="0.3em" style="text-anchor: end; visibility: hidden; font-family: Roboto, sans-serif; font-size: 12px; font-weight: 200;" fill="rgb(255, 255, 255)" stroke="none" stroke-width="1px">-0.9</text><text x="0" y="329.87499999999994" dx="0em" dy="0.3em" style="text-anchor: end; visibility: inherit; font-family: Roboto, sans-serif; font-size: 12px; font-weight: 200;" fill="rgb(255, 255, 255)" stroke="none" stroke-width="1px">-0.85</text><text x="0" y="282.75" dx="0em" dy="0.3em" style="text-anchor: end; visibility: inherit; font-family: Roboto, sans-serif; font-size: 12px; font-weight: 200;" fill="rgb(255, 255, 255)" stroke="none" stroke-width="1px">-0.8</text><text x="0" y="235.625" dx="0em" dy="0.3em" style="text-anchor: end; visibility: inherit; font-family: Roboto, sans-serif; font-size: 12px; font-weight: 200;" fill="rgb(255, 255, 255)" stroke="none" stroke-width="1px">-0.75</text><text x="0" y="188.49999999999997" dx="0em" dy="0.3em" style="text-anchor: end; visibility: inherit; font-family: Roboto, sans-serif; font-size: 12px; font-weight: 200;" fill="rgb(255, 255, 255)" stroke="none" stroke-width="1px">-0.7</text><text x="0" y="141.375" dx="0em" dy="0.3em" style="text-anchor: end; visibility: inherit; font-family: Roboto, sans-serif; font-size: 12px; font-weight: 200;" fill="rgb(255, 255, 255)" stroke="none" stroke-width="1px">-0.65</text><text x="0" y="94.24999999999996" dx="0em" dy="0.3em" style="text-anchor: end; visibility: inherit; font-family: Roboto, sans-serif; font-size: 12px; font-weight: 200;" fill="rgb(255, 255, 255)" stroke="none" stroke-width="1px">-0.6</text><text x="0" y="47.12500000000004" dx="0em" dy="0.3em" style="text-anchor: end; visibility: inherit; font-family: Roboto, sans-serif; font-size: 12px; font-weight: 200;" fill="rgb(255, 255, 255)" stroke="none" stroke-width="1px">-0.55</text><text x="0" y="0" dx="0em" dy="0.3em" style="text-anchor: end; visibility: hidden; font-family: Roboto, sans-serif; font-size: 12px; font-weight: 200;" fill="rgb(255, 255, 255)" stroke="none" stroke-width="1px">-0.5</text></g><line x1="61.953125" y1="0" x2="61.953125" y2="377" fill="rgb(0, 0, 0)" stroke="rgb(204, 204, 204)" stroke-width="1px"></line></g></g><g transform="translate(61, 0)" clip-path="url(#clip_0)"><clipPath id="clip_0"><rect width="1436" height="377"></rect></clipPath><g><g><g><line x1="0" y1="0" x2="0" y2="377" fill="rgb(0, 0, 0)" stroke="rgb(189, 189, 189)" stroke-width="1px" opacity="0.25"></line><line x1="119.67057291666666" y1="0" x2="119.67057291666666" y2="377" fill="rgb(0, 0, 0)" stroke="rgb(189, 189, 189)" stroke-width="1px" opacity="0.25"></line><line x1="239.34114583333331" y1="0" x2="239.34114583333331" y2="377" fill="rgb(0, 0, 0)" stroke="rgb(189, 189, 189)" stroke-width="1px" opacity="0.25"></line><line x1="359.01171875" y1="0" x2="359.01171875" y2="377" fill="rgb(0, 0, 0)" stroke="rgb(189, 189, 189)" stroke-width="1px" opacity="0.25"></line><line x1="478.68229166666663" y1="0" x2="478.68229166666663" y2="377" fill="rgb(0, 0, 0)" stroke="rgb(189, 189, 189)" stroke-width="1px" opacity="0.25"></line><line x1="598.3528645833334" y1="0" x2="598.3528645833334" y2="377" fill="rgb(0, 0, 0)" stroke="rgb(189, 189, 189)" stroke-width="1px" opacity="0.25"></line><line x1="718.0234375" y1="0" x2="718.0234375" y2="377" fill="rgb(0, 0, 0)" stroke="rgb(189, 189, 189)" stroke-width="1px" opacity="0.25"></line><line x1="837.6940104166667" y1="0" x2="837.6940104166667" y2="377" fill="rgb(0, 0, 0)" stroke="rgb(189, 189, 189)" stroke-width="1px" opacity="0.25"></line><line x1="957.3645833333333" y1="0" x2="957.3645833333333" y2="377" fill="rgb(0, 0, 0)" stroke="rgb(189, 189, 189)" stroke-width="1px" opacity="0.25"></line><line x1="1077.03515625" y1="0" x2="1077.03515625" y2="377" fill="rgb(0, 0, 0)" stroke="rgb(189, 189, 189)" stroke-width="1px" opacity="0.25"></line><line x1="1196.7057291666667" y1="0" x2="1196.7057291666667" y2="377" fill="rgb(0, 0, 0)" stroke="rgb(189, 189, 189)" stroke-width="1px" opacity="0.25"></line><line x1="1316.3763020833333" y1="0" x2="1316.3763020833333" y2="377" fill="rgb(0, 0, 0)" stroke="rgb(189, 189, 189)" stroke-width="1px" opacity="0.25"></line><line x1="1436.046875" y1="0" x2="1436.046875" y2="377" fill="rgb(0, 0, 0)" stroke="rgb(189, 189, 189)" stroke-width="1px" opacity="0.25"></line></g><g><line x1="0" y1="377" x2="1436.046875" y2="377" fill="rgb(0, 0, 0)" stroke="rgb(189, 189, 189)" stroke-width="1px" opacity="0.25"></line><line x1="0" y1="329.87499999999994" x2="1436.046875" y2="329.87499999999994" fill="rgb(0, 0, 0)" stroke="rgb(189, 189, 189)" stroke-width="1px" opacity="0.25"></line><line x1="0" y1="282.75" x2="1436.046875" y2="282.75" fill="rgb(0, 0, 0)" stroke="rgb(189, 189, 189)" stroke-width="1px" opacity="0.25"></line><line x1="0" y1="235.625" x2="1436.046875" y2="235.625" fill="rgb(0, 0, 0)" stroke="rgb(189, 189, 189)" stroke-width="1px" opacity="0.25"></line><line x1="0" y1="188.49999999999997" x2="1436.046875" y2="188.49999999999997" fill="rgb(0, 0, 0)" stroke="rgb(189, 189, 189)" stroke-width="1px" opacity="0.25"></line><line x1="0" y1="141.375" x2="1436.046875" y2="141.375" fill="rgb(0, 0, 0)" stroke="rgb(189, 189, 189)" stroke-width="1px" opacity="0.25"></line><line x1="0" y1="94.24999999999996" x2="1436.046875" y2="94.24999999999996" fill="rgb(0, 0, 0)" stroke="rgb(189, 189, 189)" stroke-width="1px" opacity="0.25"></line><line x1="0" y1="47.12500000000004" x2="1436.046875" y2="47.12500000000004" fill="rgb(0, 0, 0)" stroke="rgb(189, 189, 189)" stroke-width="1px" opacity="0.25"></line><line x1="0" y1="0" x2="1436.046875" y2="0" fill="rgb(0, 0, 0)" stroke="rgb(189, 189, 189)" stroke-width="1px" opacity="0.25"></line></g></g></g><g><g><line x1="0" y1="-471.25" x2="1436.046875" y2="-471.25" fill="rgb(0, 0, 0)" stroke="rgb(153, 153, 153)" stroke-width="1.5px"></line></g></g><g><g><line x1="119.67057291666666" y1="0" x2="119.67057291666666" y2="377" fill="rgb(0, 0, 0)" stroke="rgb(153, 153, 153)" stroke-width="1.5px"></line></g></g><g><g><g><g><g><path stroke="rgb(0, 119, 187)" stroke-width="2px" d="M155.57174479166667,-20.71555303932524L167.53880208333334,16.81528629856622L179.505859375,46.35908052190907L191.47291666666666,14.016960622238223L203.43997395833333,37.493936201014L215.40703125,40.29079953750732L227.37408854166665,68.88435858417279L239.34114583333331,103.40936313120721L251.30820312499998,70.54462764048696L263.27526041666664,82.38024030339777L275.24231770833336,111.5230877977014L287.209375,128.3973136252411L299.1764322916667,146.8818717232634L311.14348958333335,162.9030005954502L323.110546875,179.71298662372834L335.0776041666667,185.18762822182177L347.04466145833334,197.26093570026583L359.01171875,175.42472940252978L370.9787760416667,176.86567878057667L382.9458333333333,182.9024928924358L394.91289062500005,195.02358457420192L406.87994791666665,198.04223202001796L418.84700520833337,211.01878666174488L430.8140625,205.27718176051363L442.7811197916667,205.27605624011642L454.7481770833333,193.14750784029255L466.715234375,204.97695438581835L478.68229166666663,210.59073867580844L490.64934895833335,221.70314337591L502.61640624999995,227.33801876763184L514.5834635416667,234.40514126480798L526.5505208333333,240.93827054033713L538.517578125,245.7859037178684L550.4846354166667,241.6883776423634L562.4516927083333,247.11638795163967L574.41875,243.50234055901547L586.3858072916667,250.38611329349868L598.3528645833334,249.85530373864617L610.319921875,252.92229935532862L622.2869791666667,254.67386988807723L634.2540364583333,241.24967073434019L646.22109375,241.83728484166645L658.1881510416666,249.05579658275724L670.1552083333333,248.10759460273783L682.122265625,259.7947310698095L694.0893229166667,258.9938566731727L706.0563802083333,266.3754563470166L718.0234375,255.5229224694094L729.9904947916666,264.5329683027566L741.9575520833334,263.88835317008716L753.924609375,270.8647044878359L765.8916666666667,268.88097154661506L777.8587239583333,274.5587423146214L789.8257812500001,266.9427551455064L801.7928385416667,266.77415841191754L813.7598958333333,269.0051415713807L825.7269531249999,272.80436350166354L837.6940104166667,272.87496304794365L849.6610677083333,273.1363287409693L861.628125,276.829910178469L873.5951822916666,281.97388664411716L885.5622395833334,272.17206801757015L897.529296875,278.1197763987892L909.4963541666666,282.06807470397376L921.4634114583334,273.5025131079367L933.43046875,278.0753037643345L945.3975260416667,275.618262744743L957.3645833333333,281.94554114820846L969.3316406250001,285.6464255366744L981.2986979166667,263.5945289044304L993.2657552083333,268.04519520662814L1005.2328124999999,271.91750572149704L1017.1998697916667,281.0216592025646L1029.1669270833333,284.2957326015195L1041.133984375,281.32100538097103L1053.1010416666666,287.86064857719316L1065.0680989583334,290.2641826186048L1077.03515625,288.6850372224472L1089.0022135416666,294.9875496217218L1100.9692708333334,291.42359251499374L1112.936328125,296.1369250198622L1124.9033854166667,289.3248859431632L1136.8704427083333,289.6442077428502L1148.8375,294.2175305047911L1160.8045572916667,295.3322432449954L1172.7716145833333,294.1437666374491L1184.738671875,298.2612509906921L1196.7057291666667,302.33177640204065L1208.6727864583333,301.1238510580372L1220.63984375,300.115737221644L1232.6069010416666,301.6822583142956L1244.5739583333334,295.05723689643804L1256.541015625,297.42558582379206L1268.5080729166666,265.99678037194053L1280.4751302083334,275.5545449836985L1292.4421875,281.53293194957126L1304.4092447916667,290.86303828965913" style="fill: none;" fill="none"></path></g><g><path stroke="rgb(255, 112, 67)" stroke-width="2px" d="M143.6046875,-27.021196443400346L155.57174479166667,3.7488771061145467L167.53880208333334,33.318527709361106L179.505859375,59.07678080284501L191.47291666666666,77.13511006197479L203.43997395833333,94.5528999571623L215.40703125,109.88978652741461L227.37408854166665,126.02258153776813L239.34114583333331,139.85676860161274L251.30820312499998,148.94367078144114L263.27526041666664,153.38513127556283L275.24231770833336,161.4432757017008L287.209375,165.28329354399193L299.1764322916667,169.38887777745276L311.14348958333335,177.24773469907066L323.110546875,185.09028387175903L335.0776041666667,190.6187321043647L347.04466145833334,196.55119184445365L359.01171875,202.43354338672856L370.9787760416667,207.75402823608474L382.9458333333333,211.68949590040663L394.91289062500005,215.69032463843203L406.87994791666665,218.69372338740348L418.84700520833337,223.3666242034519L430.8140625,229.2326425092588L442.7811197916667,230.85589766822326L454.7481770833333,235.06548801676414L466.715234375,239.77970327675445L478.68229166666663,241.19415048728382L490.64934895833335,243.85149154649872L502.61640624999995,247.87568575887406L514.5834635416667,250.41580716747302L526.5505208333333,253.63632342784305L538.517578125,256.62841310384346L550.4846354166667,254.51786933181293L562.4516927083333,256.53561572632015L574.41875,256.17974555689034L586.3858072916667,261.0742742869326L598.3528645833334,262.6428302500845L610.319921875,264.1328080784389L622.2869791666667,267.8561616578522L634.2540364583333,269.38432426241303L646.22109375,271.06562428972614L658.1881510416666,274.56138486335334L670.1552083333333,276.5920079150461L682.122265625,279.71681518192895L694.0893229166667,281.7783541164475L706.0563802083333,281.03438981299473L718.0234375,282.121360817799L729.9904947916666,282.512228212696L741.9575520833334,283.07584548379873L753.924609375,284.6382041399603L765.8916666666667,286.8401225064641L777.8587239583333,289.05716124229957L789.8257812500001,292.11342303050566L801.7928385416667,290.5425545126315L813.7598958333333,291.1263634700919L825.7269531249999,291.7757778923574L837.6940104166667,293.0541530546723L849.6610677083333,294.3219772787097L861.628125,290.07564524912766L873.5951822916666,292.8393893649846L885.5622395833334,295.49873212474125L897.529296875,295.02731544420567L909.4963541666666,298.88243166971245L921.4634114583334,297.6710338329678L933.43046875,296.70201556926804L945.3975260416667,298.6885497265554L957.3645833333333,300.3737009520946L969.3316406250001,302.5915658691615L981.2986979166667,302.5133206847666L993.2657552083333,302.9226022841894L1005.2328124999999,304.16555296557004L1017.1998697916667,303.9683887096619L1029.1669270833333,304.4098040573466L1041.133984375,305.3936648745215L1053.1010416666666,305.96781615567363L1065.0680989583334,307.5321218809146L1077.03515625,309.6094591327971L1089.0022135416666,311.5998644566467L1100.9692708333334,310.327441727633L1112.936328125,310.9231318184341L1124.9033854166667,308.652145331504L1136.8704427083333,309.86128477829845L1148.8375,312.4639557501149L1160.8045572916667,311.15947009526974L1172.7716145833333,312.9216429241727L1184.738671875,313.7642873281004L1196.7057291666667,313.6172148056461L1208.6727864583333,315.4076045828407L1220.63984375,314.6357953155179L1232.6069010416666,315.39159149158974L1244.5739583333334,316.7115869687028L1256.541015625,317.97552996836305L1268.5080729166666,317.6362411854023L1280.4751302083334,320.00100999813753L1292.4421875,321.3590743374728L1304.4092447916667,322.8858970316582" style="fill: none;" fill="none"></path></g></g></g></g><g opacity="0.2"><g><g><g><path stroke="rgb(0, 119, 187)" stroke-width="2px" d="M143.6046875,-3.320729061961174L155.57174479166667,72.86453068256378L167.53880208333334,83.36121752858162L179.505859375,103.70860755443573L191.47291666666666,-52.56961032748222L203.43997395833333,87.76220947504044L215.40703125,46.440602242946625L227.37408854166665,132.91033878922462L239.34114583333331,181.69213324785233L251.30820312499998,-4.623454362154007L263.27526041666664,109.61442291736603L275.24231770833336,178.86422023177147L287.209375,167.50346913933754L299.1764322916667,189.80774194002151L311.14348958333335,200.1614011824131L323.110546875,218.84504199028015L335.0776041666667,197.94099032878876L347.04466145833334,225.39987459778786L359.01171875,124.51423645019531L370.9787760416667,180.2260160446167L382.9458333333333,196.98288515210152L394.91289062500005,223.29839125275612L406.87994791666665,205.0843933224678L418.84700520833337,241.293353587389L430.8140625,191.88136130571365L442.7811197916667,205.27343019843102L454.7481770833333,164.84886333346367L466.715234375,232.5781075656414L478.68229166666663,223.68927344679832L490.64934895833335,247.6316785812378L502.61640624999995,240.4859161376953L514.5834635416667,250.8949662744999L526.5505208333333,256.1821563541889L538.517578125,257.09700495004654L550.4846354166667,232.12750881910324L562.4516927083333,259.78172183036804L574.41875,235.06957426667213L586.3858072916667,266.44823506474495L598.3528645833334,248.61674889922142L610.319921875,260.0786192715168L622.2869791666667,258.760866522789L634.2540364583333,209.92654621601105L646.22109375,243.20838421583176L658.1881510416666,265.8989888429642L670.1552083333333,245.8951234817505L682.122265625,287.0647147297859L694.0893229166667,257.12514981627464L706.0563802083333,283.5991884768009L718.0234375,230.2003438770771L729.9904947916666,285.556408315897L741.9575520833334,262.38425120711327L753.924609375,287.14285746216774L765.8916666666667,264.25226137042046L777.8587239583333,287.80687406659126L789.8257812500001,249.17211845517159L801.7928385416667,266.3807660341263L813.7598958333333,274.2107689380646L825.7269531249999,281.66921466588974L837.6940104166667,273.0396953225136L849.6610677083333,273.7461820244789L861.628125,285.44826686382294L873.5951822916666,293.97649839520454L885.5622395833334,249.30115789175034L897.529296875,291.99776262044907L909.4963541666666,291.2807707488537L921.4634114583334,253.51620271801949L933.43046875,288.7451486289501L945.3975260416667,269.88516703248024L957.3645833333333,296.70919075608253L969.3316406250001,294.2818224430084L981.2986979166667,212.1401034295559L993.2657552083333,278.430083245039L1005.2328124999999,280.95289692282677L1017.1998697916667,302.2646839916706L1029.1669270833333,291.93523719906807L1041.133984375,274.3799751996994L1053.1010416666666,303.1198160350323L1065.0680989583334,295.87242871522903L1077.03515625,285.0003646314144L1089.0022135416666,309.69341188669205L1100.9692708333334,283.10769259929657L1112.936328125,307.13470086455345L1124.9033854166667,273.4301280975342L1136.8704427083333,290.3892919421196L1148.8375,304.88861694931984L1160.8045572916667,297.9332396388054L1172.7716145833333,291.370654553175L1184.738671875,307.8687144815922L1196.7057291666667,311.8296690285206L1208.6727864583333,298.3053585886955L1220.63984375,297.76347160339355L1232.6069010416666,305.3374741971493L1244.5739583333334,279.59885358810425L1256.541015625,302.95173332095146L1268.5080729166666,192.66290098428726L1280.4751302083334,297.8559957444668L1292.4421875,295.48250153660774L1304.4092447916667,312.6332864165306" style="fill: none;" fill="none"></path></g><g><path stroke="rgb(255, 112, 67)" stroke-width="2px" d="M131.63763020833332,-24.430193305015564L143.6046875,32.63473078608513L155.57174479166667,50.91939985752106L167.53880208333334,85.74847519397736L179.505859375,109.07792896032333L191.47291666666666,114.31394144892693L203.43997395833333,131.84740662574768L215.40703125,143.6128595471382L227.37408854166665,162.14673146605492L239.34114583333331,171.2247148156166L251.30820312499998,169.72719445824623L263.27526041666664,163.60509619116783L275.24231770833336,180.06343871355057L287.209375,174.18256610631943L299.1764322916667,178.9230941236019L311.14348958333335,195.5241271853447L323.110546875,203.346995562315L335.0776041666667,203.49743857979774L347.04466145833334,210.37781909108162L359.01171875,216.14807844161987L370.9787760416667,220.16155883669853L382.9458333333333,220.86866348981857L394.91289062500005,225.02303674817085L406.87994791666665,225.70031121373177L418.84700520833337,234.26859721541405L430.8140625,242.9187336564064L442.7811197916667,234.64324414730072L454.7481770833333,244.88741368055344L466.715234375,250.77918469905853L478.68229166666663,244.4944529235363L490.64934895833335,250.0518561899662L502.61640624999995,257.26536855101585L514.5834635416667,256.3427112996578L526.5505208333333,261.1508207023144L538.517578125,263.60992923378944L550.4846354166667,249.59328025579453L562.4516927083333,261.2436819076538L574.41875,255.34938290715218L586.3858072916667,272.49483093619347L598.3528645833334,266.30279183387756L610.319921875,267.6094214618206L622.2869791666667,276.54398396611214L634.2540364583333,272.9500362277031L646.22109375,274.98865708708763L658.1881510416666,282.7181586623192L670.1552083333333,281.3301280140877L682.122265625,287.0080317556858L694.0893229166667,286.5886114537716L706.0563802083333,279.29847314953804L718.0234375,284.6576264500618L729.9904947916666,283.4242521226406L741.9575520833334,284.3909524381161L753.924609375,288.2837076485157L765.8916666666667,291.9779320061207L777.8587239583333,294.2302516102791L789.8257812500001,299.2447005212307L801.7928385416667,286.87719464302063L813.7598958333333,292.488584369421L825.7269531249999,293.291078209877L837.6940104166667,296.0370284318924L849.6610677083333,297.2802338004112L861.628125,280.1675371825695L873.5951822916666,299.2881256341934L885.5622395833334,301.70386523008347L897.529296875,293.92734318971634L909.4963541666666,307.8777028620243L921.4634114583334,294.844438880682L933.43046875,294.4409729540348L945.3975260416667,303.3237960934639L957.3645833333333,304.3057204782963L969.3316406250001,307.7665840089321L981.2986979166667,302.33074858784676L993.2657552083333,303.87759268283844L1005.2328124999999,307.06577122211456L1017.1998697916667,303.50833877921104L1029.1669270833333,305.43977320194244L1041.133984375,307.6893401145935L1053.1010416666666,307.30750247836113L1065.0680989583334,311.1821685731411L1077.03515625,314.45657938718796L1089.0022135416666,316.2441435456276L1100.9692708333334,307.35845535993576L1112.936328125,312.313075363636L1124.9033854166667,303.3531768620014L1136.8704427083333,312.6826101541519L1148.8375,318.5368546843529L1160.8045572916667,308.1156702339649L1172.7716145833333,317.0333795249462L1184.738671875,315.7304576039314L1196.7057291666667,313.274045586586L1208.6727864583333,319.5851807296276L1220.63984375,312.8349070250988L1232.6069010416666,317.15511590242386L1244.5739583333334,319.79157641530037L1256.541015625,320.9247303009033L1268.5080729166666,316.8445673584938L1280.4751302083334,325.5188038945198L1292.4421875,324.5278911292553L1304.4092447916667,326.44848331809044" style="fill: none;" fill="none"></path></g></g></g></g></g></g><g transform="translate(61, 377)" clip-path="url(#clip_1)"><clipPath id="clip_1"><rect width="1436" height="23"></rect></clipPath><g><g><line x1="0" y1="0" x2="0" y2="5" style="visibility: inherit;" fill="rgb(0, 0, 0)" stroke="rgb(204, 204, 204)" stroke-width="1px"></line><line x1="119.67057291666666" y1="0" x2="119.67057291666666" y2="5" style="visibility: inherit;" fill="rgb(0, 0, 0)" stroke="rgb(204, 204, 204)" stroke-width="1px"></line><line x1="239.34114583333331" y1="0" x2="239.34114583333331" y2="5" style="visibility: inherit;" fill="rgb(0, 0, 0)" stroke="rgb(204, 204, 204)" stroke-width="1px"></line><line x1="359.01171875" y1="0" x2="359.01171875" y2="5" style="visibility: inherit;" fill="rgb(0, 0, 0)" stroke="rgb(204, 204, 204)" stroke-width="1px"></line><line x1="478.68229166666663" y1="0" x2="478.68229166666663" y2="5" style="visibility: inherit;" fill="rgb(0, 0, 0)" stroke="rgb(204, 204, 204)" stroke-width="1px"></line><line x1="598.3528645833334" y1="0" x2="598.3528645833334" y2="5" style="visibility: inherit;" fill="rgb(0, 0, 0)" stroke="rgb(204, 204, 204)" stroke-width="1px"></line><line x1="718.0234375" y1="0" x2="718.0234375" y2="5" style="visibility: inherit;" fill="rgb(0, 0, 0)" stroke="rgb(204, 204, 204)" stroke-width="1px"></line><line x1="837.6940104166667" y1="0" x2="837.6940104166667" y2="5" style="visibility: inherit;" fill="rgb(0, 0, 0)" stroke="rgb(204, 204, 204)" stroke-width="1px"></line><line x1="957.3645833333333" y1="0" x2="957.3645833333333" y2="5" style="visibility: inherit;" fill="rgb(0, 0, 0)" stroke="rgb(204, 204, 204)" stroke-width="1px"></line><line x1="1077.03515625" y1="0" x2="1077.03515625" y2="5" style="visibility: inherit;" fill="rgb(0, 0, 0)" stroke="rgb(204, 204, 204)" stroke-width="1px"></line><line x1="1196.7057291666667" y1="0" x2="1196.7057291666667" y2="5" style="visibility: inherit;" fill="rgb(0, 0, 0)" stroke="rgb(204, 204, 204)" stroke-width="1px"></line><line x1="1316.3763020833333" y1="0" x2="1316.3763020833333" y2="5" style="visibility: inherit;" fill="rgb(0, 0, 0)" stroke="rgb(204, 204, 204)" stroke-width="1px"></line><line x1="1436.046875" y1="0" x2="1436.046875" y2="5" style="visibility: inherit;" fill="rgb(0, 0, 0)" stroke="rgb(204, 204, 204)" stroke-width="1px"></line></g><g transform="translate(0, 8)"><text x="0" y="0" dx="0em" dy="0.95em" style="text-anchor: middle; visibility: hidden; font-family: Roboto, sans-serif; font-size: 12px; font-weight: 200;" fill="rgb(255, 255, 255)" stroke="none" stroke-width="1px">-10</text><text x="119.67057291666666" y="0" dx="0em" dy="0.95em" style="text-anchor: middle; visibility: inherit; font-family: Roboto, sans-serif; font-size: 12px; font-weight: 200;" fill="rgb(255, 255, 255)" stroke="none" stroke-width="1px">0</text><text x="239.34114583333331" y="0" dx="0em" dy="0.95em" style="text-anchor: middle; visibility: inherit; font-family: Roboto, sans-serif; font-size: 12px; font-weight: 200;" fill="rgb(255, 255, 255)" stroke="none" stroke-width="1px">10</text><text x="359.01171875" y="0" dx="0em" dy="0.95em" style="text-anchor: middle; visibility: inherit; font-family: Roboto, sans-serif; font-size: 12px; font-weight: 200;" fill="rgb(255, 255, 255)" stroke="none" stroke-width="1px">20</text><text x="478.68229166666663" y="0" dx="0em" dy="0.95em" style="text-anchor: middle; visibility: inherit; font-family: Roboto, sans-serif; font-size: 12px; font-weight: 200;" fill="rgb(255, 255, 255)" stroke="none" stroke-width="1px">30</text><text x="598.3528645833334" y="0" dx="0em" dy="0.95em" style="text-anchor: middle; visibility: inherit; font-family: Roboto, sans-serif; font-size: 12px; font-weight: 200;" fill="rgb(255, 255, 255)" stroke="none" stroke-width="1px">40</text><text x="718.0234375" y="0" dx="0em" dy="0.95em" style="text-anchor: middle; visibility: inherit; font-family: Roboto, sans-serif; font-size: 12px; font-weight: 200;" fill="rgb(255, 255, 255)" stroke="none" stroke-width="1px">50</text><text x="837.6940104166667" y="0" dx="0em" dy="0.95em" style="text-anchor: middle; visibility: inherit; font-family: Roboto, sans-serif; font-size: 12px; font-weight: 200;" fill="rgb(255, 255, 255)" stroke="none" stroke-width="1px">60</text><text x="957.3645833333333" y="0" dx="0em" dy="0.95em" style="text-anchor: middle; visibility: inherit; font-family: Roboto, sans-serif; font-size: 12px; font-weight: 200;" fill="rgb(255, 255, 255)" stroke="none" stroke-width="1px">70</text><text x="1077.03515625" y="0" dx="0em" dy="0.95em" style="text-anchor: middle; visibility: inherit; font-family: Roboto, sans-serif; font-size: 12px; font-weight: 200;" fill="rgb(255, 255, 255)" stroke="none" stroke-width="1px">80</text><text x="1196.7057291666667" y="0" dx="0em" dy="0.95em" style="text-anchor: middle; visibility: inherit; font-family: Roboto, sans-serif; font-size: 12px; font-weight: 200;" fill="rgb(255, 255, 255)" stroke="none" stroke-width="1px">90</text><text x="1316.3763020833333" y="0" dx="0em" dy="0.95em" style="text-anchor: middle; visibility: inherit; font-family: Roboto, sans-serif; font-size: 12px; font-weight: 200;" fill="rgb(255, 255, 255)" stroke="none" stroke-width="1px">100</text><text x="1436.046875" y="0" dx="0em" dy="0.95em" style="text-anchor: middle; visibility: hidden; font-family: Roboto, sans-serif; font-size: 12px; font-weight: 200;" fill="rgb(255, 255, 255)" stroke="none" stroke-width="1px">110</text></g><line x1="0" y1="0" x2="1436.046875" y2="0" fill="rgb(0, 0, 0)" stroke="rgb(204, 204, 204)" stroke-width="1px"></line></g></g></g></g></svg>