<svg viewBox="0 0 1498 400" xmlns="http://www.w3.org/2000/svg"><g><g><g><g><g><line x1="51.5625" y1="377" x2="46.5625" y2="377" style="visibility: inherit;" fill="rgb(0, 0, 0)" stroke="rgb(204, 204, 204)" stroke-width="1px"></line><line x1="51.5625" y1="323.1428571428571" x2="46.5625" y2="323.1428571428571" style="visibility: inherit;" fill="rgb(0, 0, 0)" stroke="rgb(204, 204, 204)" stroke-width="1px"></line><line x1="51.5625" y1="269.28571428571433" x2="46.5625" y2="269.28571428571433" style="visibility: inherit;" fill="rgb(0, 0, 0)" stroke="rgb(204, 204, 204)" stroke-width="1px"></line><line x1="51.5625" y1="215.42857142857142" x2="46.5625" y2="215.42857142857142" style="visibility: inherit;" fill="rgb(0, 0, 0)" stroke="rgb(204, 204, 204)" stroke-width="1px"></line><line x1="51.5625" y1="161.5714285714286" x2="46.5625" y2="161.5714285714286" style="visibility: inherit;" fill="rgb(0, 0, 0)" stroke="rgb(204, 204, 204)" stroke-width="1px"></line><line x1="51.5625" y1="107.71428571428571" x2="46.5625" y2="107.71428571428571" style="visibility: inherit;" fill="rgb(0, 0, 0)" stroke="rgb(204, 204, 204)" stroke-width="1px"></line><line x1="51.5625" y1="53.85714285714279" x2="46.5625" y2="53.85714285714279" style="visibility: inherit;" fill="rgb(0, 0, 0)" stroke="rgb(204, 204, 204)" stroke-width="1px"></line><line x1="51.5625" y1="0" x2="46.5625" y2="0" style="visibility: inherit;" fill="rgb(0, 0, 0)" stroke="rgb(204, 204, 204)" stroke-width="1px"></line></g><g transform="translate(41.5625, 0)"><text x="0" y="377" dx="0em" dy="0.3em" style="text-anchor: end; visibility: hidden; font-family: Roboto, sans-serif; font-size: 12px; font-weight: 200;" fill="rgb(255, 255, 255)" stroke="none" stroke-width="1px">0.5</text><text x="0" y="323.1428571428571" dx="0em" dy="0.3em" style="text-anchor: end; visibility: inherit; font-family: Roboto, sans-serif; font-size: 12px; font-weight: 200;" fill="rgb(255, 255, 255)" stroke="none" stroke-width="1px">0.55</text><text x="0" y="269.28571428571433" dx="0em" dy="0.3em" style="text-anchor: end; visibility: inherit; font-family: Roboto, sans-serif; font-size: 12px; font-weight: 200;" fill="rgb(255, 255, 255)" stroke="none" stroke-width="1px">0.6</text><text x="0" y="215.42857142857142" dx="0em" dy="0.3em" style="text-anchor: end; visibility: inherit; font-family: Roboto, sans-serif; font-size: 12px; font-weight: 200;" fill="rgb(255, 255, 255)" stroke="none" stroke-width="1px">0.65</text><text x="0" y="161.5714285714286" dx="0em" dy="0.3em" style="text-anchor: end; visibility: inherit; font-family: Roboto, sans-serif; font-size: 12px; font-weight: 200;" fill="rgb(255, 255, 255)" stroke="none" stroke-width="1px">0.7</text><text x="0" y="107.71428571428571" dx="0em" dy="0.3em" style="text-anchor: end; visibility: inherit; font-family: Roboto, sans-serif; font-size: 12px; font-weight: 200;" fill="rgb(255, 255, 255)" stroke="none" stroke-width="1px">0.75</text><text x="0" y="53.85714285714279" dx="0em" dy="0.3em" style="text-anchor: end; visibility: inherit; font-family: Roboto, sans-serif; font-size: 12px; font-weight: 200;" fill="rgb(255, 255, 255)" stroke="none" stroke-width="1px">0.8</text><text x="0" y="0" dx="0em" dy="0.3em" style="text-anchor: end; visibility: hidden; font-family: Roboto, sans-serif; font-size: 12px; font-weight: 200;" fill="rgb(255, 255, 255)" stroke="none" stroke-width="1px">0.85</text></g><line x1="51.5625" y1="0" x2="51.5625" y2="377" fill="rgb(0, 0, 0)" stroke="rgb(204, 204, 204)" stroke-width="1px"></line></g></g><g transform="translate(51, 0)" clip-path="url(#clip_0)"><clipPath id="clip_0"><rect width="1446" height="377"></rect></clipPath><g><g><g><line x1="0" y1="0" x2="0" y2="377" fill="rgb(0, 0, 0)" stroke="rgb(189, 189, 189)" stroke-width="1px" opacity="0.25"></line><line x1="120.53645833333333" y1="0" x2="120.53645833333333" y2="377" fill="rgb(0, 0, 0)" stroke="rgb(189, 189, 189)" stroke-width="1px" opacity="0.25"></line><line x1="241.07291666666666" y1="0" x2="241.07291666666666" y2="377" fill="rgb(0, 0, 0)" stroke="rgb(189, 189, 189)" stroke-width="1px" opacity="0.25"></line><line x1="361.609375" y1="0" x2="361.609375" y2="377" fill="rgb(0, 0, 0)" stroke="rgb(189, 189, 189)" stroke-width="1px" opacity="0.25"></line><line x1="482.1458333333333" y1="0" x2="482.1458333333333" y2="377" fill="rgb(0, 0, 0)" stroke="rgb(189, 189, 189)" stroke-width="1px" opacity="0.25"></line><line x1="602.6822916666667" y1="0" x2="602.6822916666667" y2="377" fill="rgb(0, 0, 0)" stroke="rgb(189, 189, 189)" stroke-width="1px" opacity="0.25"></line><line x1="723.21875" y1="0" x2="723.21875" y2="377" fill="rgb(0, 0, 0)" stroke="rgb(189, 189, 189)" stroke-width="1px" opacity="0.25"></line><line x1="843.7552083333334" y1="0" x2="843.7552083333334" y2="377" fill="rgb(0, 0, 0)" stroke="rgb(189, 189, 189)" stroke-width="1px" opacity="0.25"></line><line x1="964.2916666666666" y1="0" x2="964.2916666666666" y2="377" fill="rgb(0, 0, 0)" stroke="rgb(189, 189, 189)" stroke-width="1px" opacity="0.25"></line><line x1="1084.828125" y1="0" x2="1084.828125" y2="377" fill="rgb(0, 0, 0)" stroke="rgb(189, 189, 189)" stroke-width="1px" opacity="0.25"></line><line x1="1205.3645833333335" y1="0" x2="1205.3645833333335" y2="377" fill="rgb(0, 0, 0)" stroke="rgb(189, 189, 189)" stroke-width="1px" opacity="0.25"></line><line x1="1325.9010416666665" y1="0" x2="1325.9010416666665" y2="377" fill="rgb(0, 0, 0)" stroke="rgb(189, 189, 189)" stroke-width="1px" opacity="0.25"></line><line x1="1446.4375" y1="0" x2="1446.4375" y2="377" fill="rgb(0, 0, 0)" stroke="rgb(189, 189, 189)" stroke-width="1px" opacity="0.25"></line></g><g><line x1="0" y1="377" x2="1446.4375" y2="377" fill="rgb(0, 0, 0)" stroke="rgb(189, 189, 189)" stroke-width="1px" opacity="0.25"></line><line x1="0" y1="323.1428571428571" x2="1446.4375" y2="323.1428571428571" fill="rgb(0, 0, 0)" stroke="rgb(189, 189, 189)" stroke-width="1px" opacity="0.25"></line><line x1="0" y1="269.28571428571433" x2="1446.4375" y2="269.28571428571433" fill="rgb(0, 0, 0)" stroke="rgb(189, 189, 189)" stroke-width="1px" opacity="0.25"></line><line x1="0" y1="215.42857142857142" x2="1446.4375" y2="215.42857142857142" fill="rgb(0, 0, 0)" stroke="rgb(189, 189, 189)" stroke-width="1px" opacity="0.25"></line><line x1="0" y1="161.5714285714286" x2="1446.4375" y2="161.5714285714286" fill="rgb(0, 0, 0)" stroke="rgb(189, 189, 189)" stroke-width="1px" opacity="0.25"></line><line x1="0" y1="107.71428571428571" x2="1446.4375" y2="107.71428571428571" fill="rgb(0, 0, 0)" stroke="rgb(189, 189, 189)" stroke-width="1px" opacity="0.25"></line><line x1="0" y1="53.85714285714279" x2="1446.4375" y2="53.85714285714279" fill="rgb(0, 0, 0)" stroke="rgb(189, 189, 189)" stroke-width="1px" opacity="0.25"></line><line x1="0" y1="0" x2="1446.4375" y2="0" fill="rgb(0, 0, 0)" stroke="rgb(189, 189, 189)" stroke-width="1px" opacity="0.25"></line></g></g></g><g><g><line x1="0" y1="915.5714285714287" x2="1446.4375" y2="915.5714285714287" fill="rgb(0, 0, 0)" stroke="rgb(153, 153, 153)" stroke-width="1.5px"></line></g></g><g><g><line x1="120.53645833333333" y1="0" x2="120.53645833333333" y2="377" fill="rgb(0, 0, 0)" stroke="rgb(153, 153, 153)" stroke-width="1.5px"></line></g></g><g><g><g><g><g><path stroke="rgb(0, 119, 187)" stroke-width="2px" d="M156.69739583333333,400.67492538852935L168.75104166666668,357.7825348226151L180.8046875,324.0180877639422L192.85833333333332,360.98054513590085L204.91197916666667,334.1497181611228L216.965625,330.95334457239466L229.0192708333333,298.2749205476348L241.07291666666666,258.81780255222606L253.12656249999998,296.3775405205254L265.1802083333333,282.851328990164L277.2338541666667,249.54518408648065L289.2875,230.26036995390686L301.34114583333337,209.13519075591833L313.39479166666666,190.82529225929045L325.4484375,171.6138731417687L337.50208333333336,165.35694250462302L349.55572916666665,151.5587580384804L361.609375,176.51439709830504L373.66302083333335,174.86761865669897L385.71666666666664,167.96845565019123L397.77031250000005,154.1159129425039L409.82395833333334,150.66604653067745L421.8776041666667,135.83576762382808L433.93125,142.397515437368L445.9848958333334,142.39879908288424L458.0385416666666,156.25993760541147L470.0921875,142.74039354295462L482.1458333333333,136.32467055236376L494.19947916666666,123.62485858795036L506.25312499999995,117.18519120870626L518.3067708333333,109.10853588684094L530.3604166666667,101.64194909249187L542.4140625,96.10172807600676L554.4677083333333,100.78470167597638L566.5213541666667,94.58118715612864L578.575,98.71147511699017L590.6286458333333,90.84444328355607L602.6822916666667,91.45114015730651L614.7359375,87.94596543411488L626.7895833333333,85.94424103075991L638.8432291666667,101.28615522131506L650.896875,100.61457685191458L662.9505208333333,92.36481631427606L675.0041666666667,93.44845273653941L687.0578125,80.09172851798562L699.1114583333333,81.00711206746166L711.1651041666667,72.57102860018844L723.21875,84.97394577229463L735.2723958333332,74.67668840931054L747.3260416666667,75.41338645229541L759.3796875,67.44031373760276L771.4333333333333,69.707347992097L783.4869791666666,63.2184047395449L795.5406250000001,71.9222886308495L807.5942708333333,72.11509220886742L819.6479166666667,69.56536672233091L831.7015624999999,65.22353157552463L843.7552083333334,65.1428237563463L855.8088541666667,64.84421983566457L867.8625,60.62295741296092L879.9161458333333,54.744070098982625L891.9697916666668,65.94612784287092L904.0234375,59.148790137693126L916.0770833333332,54.63646026801804L928.1307291666667,64.42556569111564L940.184375,59.19975191904298L952.2380208333333,62.0077690750913L964.2916666666666,54.77643812469929L976.3453125000001,50.54680480639611L988.3989583333333,75.74909066058582L1000.4526041666667,70.66263989633731L1012.5062499999999,66.23725597591884L1024.5598958333335,55.8325310255699L1036.6135416666666,52.09072891413028L1048.6671875,55.490318103265636L1060.7208333333333,48.01648638557339L1072.7744791666667,45.269545649577964L1084.828125,47.07417491985829L1096.8817708333333,39.87116999622618L1108.9354166666667,43.94440143514657L1120.9890625,38.557851297974L1133.0427083333334,46.343100461260086L1145.0963541666665,45.9781466321134L1157.15,40.751385502308736L1169.2036458333334,39.47748832932849L1181.2572916666666,40.83557761149125L1193.3109375,36.129820201707524L1205.3645833333335,31.477921803248943L1217.4182291666666,32.858422317578665L1229.471875,34.01044693625032L1241.5255208333333,32.22015958410879L1253.5791666666667,39.791705403971896L1265.6328125,37.085008811924624L1277.6864583333333,73.00361588067562L1289.7401041666667,62.080359867764265L1301.79375,55.247984927127696L1313.8473958333334,44.58497632373325" style="fill: none;" fill="none"></path></g><g><path stroke="rgb(255, 112, 67)" stroke-width="2px" d="M144.64375,407.8814775932092L156.69739583333333,372.7153569219628L168.75104166666668,338.9215006989839L180.8046875,309.4834935292163L192.85833333333332,288.8454845984628L204.91197916666667,268.93949252054364L216.965625,251.4117984717655L229.0192708333333,232.9742795822338L241.07291666666666,217.16371413899302L253.12656249999998,206.77861806030134L265.1802083333333,201.70279320541152L277.2338541666667,192.49355624762273L289.2875,188.10495579363044L301.34114583333337,183.4128728288697L313.39479166666666,174.43135065587072L325.4484375,165.46824508332983L337.50208333333336,159.14990341177736L349.55572916666665,152.3697725250994L361.609375,145.64701910637504L373.66302083333335,139.56636104728315L385.71666666666664,135.0688036363637L397.77031250000005,130.49639627579987L409.82395833333334,127.06407251099776L421.8776041666667,121.72359121456289L433.93125,115.02007411627314L445.9848958333334,113.16483500300002L458.0385416666666,108.35384987753854L470.0921875,102.96608094111082L482.1458333333333,101.34938823022576L494.19947916666666,98.31237693607169L506.25312499999995,93.71316647313957L518.3067708333333,90.81030975499714L530.3604166666667,87.12987494960551L542.4140625,83.70985544868643L554.4677083333333,86.12192952085014L566.5213541666667,83.81591195260016L578.575,84.22258627467528L590.6286458333333,78.62896913117157L602.6822916666667,76.83657881484143L614.7359375,75.13357186526066L626.7895833333333,70.87857324603866L638.8432291666667,69.13209291983351L650.896875,67.21085142026315L662.9505208333333,63.21565558212958L675.0041666666667,60.89495341689449L687.0578125,57.3237712983909L699.1114583333333,54.96784143643006L711.1651041666667,55.81787768666915L723.21875,54.57588351928153L735.2723958333332,54.129166203630156L747.3260416666667,53.48486988795181L759.3796875,51.69920353396072L771.4333333333333,49.182299183274296L783.4869791666666,46.64860823124681L795.5406250000001,43.15601606818627L807.5942708333333,44.951392986674264L819.6479166666667,44.284174734957865L831.7015624999999,43.54201973519471L843.7552083333334,42.081100370115294L855.8088541666667,40.63215719163812L867.8625,45.48524206259111L879.9161458333333,42.32667484068018L891.9697916666668,39.287116036691145L904.0234375,39.825988436174974L916.0770833333332,35.420392003857145L928.1307291666667,36.80482954405327L940.184375,37.912151432131964L952.2380208333333,35.64156404430483L964.2916666666666,33.715531605384065L976.3453125000001,31.180476725611133L988.3989583333333,31.270077049237955L1000.4526041666667,30.80246998973571L1012.5062499999999,29.381804872589594L1024.5598958333335,29.60731932610058L1036.6135416666666,29.102896312502835L1048.6671875,27.978597161907523L1060.7208333333333,27.32252277830054L1072.7744791666667,25.534678937287012L1084.828125,23.160475329887213L1096.8817708333333,20.8859233160843L1108.9354166666667,22.340181526827923L1120.9890625,21.6588190698497L1133.0427083333334,24.25406168030825L1145.0963541666665,22.87214570786687L1157.15,19.89778906046762L1169.2036458333334,21.38871693313585L1181.2572916666666,19.374731289960376L1193.3109375,18.41200412161645L1205.3645833333335,18.580177944831586L1217.4182291666666,16.533927771231706L1229.471875,17.416028509626525L1241.5255208333333,16.55247716242916L1253.5791666666667,15.044023379060237L1265.6328125,13.599403218914421L1277.6864583333333,13.987216941344997L1289.7401041666667,11.284508505315786L1301.79375,9.732161511462547L1313.8473958333334,7.98749212487239" style="fill: none;" fill="none"></path></g></g></g></g><g opacity="0.2"><g><g><g><path stroke="rgb(0, 119, 187)" stroke-width="2px" d="M144.64375,380.7951510293143L156.69739583333333,293.72625064849854L168.75104166666668,281.7300371101924L180.8046875,258.475556067058L192.85833333333332,437.0795546599797L204.91197916666667,276.7002678258078L216.965625,323.92509021077836L229.0192708333333,225.10221314430237L241.07291666666666,169.3518477167402L253.12656249999998,382.2840120451791L265.1802083333333,251.72701583589827L277.2338541666667,172.58381250926425L289.2875,185.5676564489092L301.34114583333337,160.07712316513062L313.39479166666666,148.24417713710238L325.4484375,126.89150898797169L337.50208333333336,150.78121171678816L349.55572916666665,119.39969389779225L361.609375,234.69775867462158L373.66302083333335,171.02728182928902L385.71666666666664,151.87670268331254L397.77031250000005,121.80215958186555L409.82395833333334,142.6179004056113L421.8776041666667,101.23642413956776L433.93125,157.70682304246083L445.9848958333334,142.401794058936L458.0385416666666,188.601106439318L470.0921875,111.19580646923609L482.1458333333333,121.35498765536714L494.19947916666666,93.99243153844557L506.25312499999995,102.15946660723004L518.3067708333333,90.26315249715529L530.3604166666667,84.22000752176557L542.4140625,83.17459467479158L554.4677083333333,111.71161110060554L566.5213541666667,80.10634681156702L578.575,108.34880117007661L590.6286458333333,72.48805236816406L602.6822916666667,92.86676529475618L614.7359375,79.76722805840626L626.7895833333333,81.27355221339631L638.8432291666667,137.08394718170166L650.896875,99.04756089619227L662.9505208333333,73.11537711960926L675.0041666666667,95.97693753242493L687.0578125,48.926040308816056L699.1114583333333,83.14300693784438L711.1651041666667,52.886834348951055L723.21875,113.91408532006398L735.2723958333332,50.64975486482892L747.3260416666667,77.13234853744507L759.3796875,48.836477518081665L771.4333333333333,74.99709456307545L783.4869791666666,48.07753719602309L795.5406250000001,92.23135100092206L807.5942708333333,72.56496722357612L819.6479166666667,63.61600725991383L831.7015624999999,55.09258290699549L843.7552083333334,64.95450551169257L855.8088541666667,64.14747735432215L867.8625,50.77334509577069L879.9161458333333,41.02666636875696L891.9697916666668,92.084262575422L904.0234375,43.2883354936327L916.0770833333332,44.107690572738605L928.1307291666667,87.26681167738776L940.184375,47.00618645123072L952.2380208333333,68.55980910573683L964.2916666666666,37.90333257402692L976.3453125000001,40.67766039712086L988.3989583333333,134.55442431994845L1000.4526041666667,58.794254779815674L1012.5062499999999,55.911360161645035L1024.5598958333335,31.554839474814273L1036.6135416666666,43.35985732078548L1048.6671875,63.4226928779057L1060.7208333333333,30.57754571097236L1072.7744791666667,38.86001726559229L1084.828125,51.28497655051093L1096.8817708333333,23.064158507755806L1108.9354166666667,53.44860812595911L1120.9890625,25.989234311240054L1133.0427083333334,64.50868184225898L1145.0963541666665,45.12658769743781L1157.15,28.55560953276496L1169.2036458333334,36.50506159237452L1181.2572916666666,44.00445260320387L1193.3109375,25.149719578879214L1205.3645833333335,20.623492206845953L1217.4182291666666,36.079590184347964L1229.471875,36.69850437981739L1241.5255208333333,28.042822429112007L1253.5791666666667,57.45864565031867L1265.6328125,30.769383430480914L1277.6864583333333,156.81369904109408L1289.7401041666667,36.59276250430513L1301.79375,39.30577673230849L1313.8473958333334,19.704622915812877" style="fill: none;" fill="none"></path></g><g><path stroke="rgb(255, 112, 67)" stroke-width="2px" d="M132.59010416666666,404.9204777308873L144.64375,339.7031006131853L156.69739583333333,318.80569393294195L168.75104166666668,279.0016142300197L180.8046875,252.33931715147835L192.85833333333332,246.35555968965804L204.91197916666667,226.31731377329146L216.965625,212.87153128215246L229.0192708333333,191.68944975308008L241.07291666666666,181.31448323386056L253.12656249999998,183.0258708681379L265.1802083333333,190.02313242639815L277.2338541666667,171.2135339123862L289.2875,177.9343385696411L301.34114583333337,172.51665646689278L313.39479166666666,153.54411145618982L325.4484375,144.60298422404696L337.50208333333336,144.4311135496412L349.55572916666665,136.56750052315846L361.609375,129.97311101640975L373.66302083333335,125.38608367102485L385.71666666666664,124.57860609463282L397.77031250000005,119.83036572592597L409.82395833333334,119.05685138702393L421.8776041666667,109.26413931165419L433.93125,99.38000256674628L445.9848958333334,108.8362282003675L458.0385416666666,97.12873428208485L470.0921875,90.39502487863813L482.1458333333333,97.57719026293073L494.19947916666666,91.2261290550232L506.25312499999995,82.98179391452241L518.3067708333333,84.03702977725435L530.3604166666667,78.54224021094184L542.4140625,75.72984017644606L554.4677083333333,91.75008743149891L566.5213541666667,78.43521428108215L578.575,85.17149179322377L590.6286458333333,65.577207667487L602.6822916666667,72.65433740615845L614.7359375,71.15989075388227L626.7895833333333,60.9502462318965L638.8432291666667,65.05697304861884L650.896875,62.72795527321949L662.9505208333333,53.89353295734949L675.0041666666667,55.479982103620245L687.0578125,48.991013458796886L699.1114583333333,49.47067196028571L711.1651041666667,57.80129555293489L723.21875,51.67789718082972L735.2723958333332,53.08682581356592L747.3260416666667,51.98151183128357L759.3796875,47.53264873368397L771.4333333333333,43.30952239036556L783.4869791666666,40.736662694386055L795.5406250000001,35.00663437162123L807.5942708333333,49.14060579027448L819.6479166666667,42.727332149233106L831.7015624999999,41.81032473700385L843.7552083333334,38.67228851999555L855.8088541666667,37.25128977639332L867.8625,56.80910675866261L879.9161458333333,34.95668465750556L891.9697916666668,32.19481216158185L904.0234375,41.08335736819673L916.0770833333332,25.14066699572969L928.1307291666667,40.03518380437575L940.184375,40.49590250423975L952.2380208333333,30.34352680615015L964.2916666666666,29.22145591463361L976.3453125000001,25.26534867286678L988.3989583333333,31.479144471032242L1000.4526041666667,29.711386850901988L1012.5062499999999,26.066919599260572L1024.5598958333335,30.13351971762519L1036.6135416666666,27.925909280776935L1048.6671875,25.355232477188068L1060.7208333333333,25.791682549885323L1072.7744791666667,21.363043308258014L1084.828125,17.62066691262379L1096.8817708333333,15.578635283878853L1108.9354166666667,25.73345068522859L1120.9890625,20.068973336900953L1133.0427083333334,30.30962777137752L1145.0963541666665,19.64767510550361L1157.15,12.957623549870064L1169.2036458333334,24.86754863602772L1181.2572916666666,14.675431455884649L1193.3109375,16.165640728814225L1205.3645833333335,18.97258353233333L1217.4182291666666,11.75934403283253L1229.471875,19.474263565880875L1241.5255208333333,14.537524018968824L1253.5791666666667,11.52429788453236L1265.6328125,10.228622845240977L1277.6864583333333,14.89211562701631L1289.7401041666667,4.9781888212476275L1301.79375,6.110018525804763L1313.8473958333334,3.916596889495808" style="fill: none;" fill="none"></path></g></g></g></g></g></g><g transform="translate(51, 377)" clip-path="url(#clip_1)"><clipPath id="clip_1"><rect width="1446" height="23"></rect></clipPath><g><g><line x1="0" y1="0" x2="0" y2="5" style="visibility: inherit;" fill="rgb(0, 0, 0)" stroke="rgb(204, 204, 204)" stroke-width="1px"></line><line x1="120.53645833333333" y1="0" x2="120.53645833333333" y2="5" style="visibility: inherit;" fill="rgb(0, 0, 0)" stroke="rgb(204, 204, 204)" stroke-width="1px"></line><line x1="241.07291666666666" y1="0" x2="241.07291666666666" y2="5" style="visibility: inherit;" fill="rgb(0, 0, 0)" stroke="rgb(204, 204, 204)" stroke-width="1px"></line><line x1="361.609375" y1="0" x2="361.609375" y2="5" style="visibility: inherit;" fill="rgb(0, 0, 0)" stroke="rgb(204, 204, 204)" stroke-width="1px"></line><line x1="482.1458333333333" y1="0" x2="482.1458333333333" y2="5" style="visibility: inherit;" fill="rgb(0, 0, 0)" stroke="rgb(204, 204, 204)" stroke-width="1px"></line><line x1="602.6822916666667" y1="0" x2="602.6822916666667" y2="5" style="visibility: inherit;" fill="rgb(0, 0, 0)" stroke="rgb(204, 204, 204)" stroke-width="1px"></line><line x1="723.21875" y1="0" x2="723.21875" y2="5" style="visibility: inherit;" fill="rgb(0, 0, 0)" stroke="rgb(204, 204, 204)" stroke-width="1px"></line><line x1="843.7552083333334" y1="0" x2="843.7552083333334" y2="5" style="visibility: inherit;" fill="rgb(0, 0, 0)" stroke="rgb(204, 204, 204)" stroke-width="1px"></line><line x1="964.2916666666666" y1="0" x2="964.2916666666666" y2="5" style="visibility: inherit;" fill="rgb(0, 0, 0)" stroke="rgb(204, 204, 204)" stroke-width="1px"></line><line x1="1084.828125" y1="0" x2="1084.828125" y2="5" style="visibility: inherit;" fill="rgb(0, 0, 0)" stroke="rgb(204, 204, 204)" stroke-width="1px"></line><line x1="1205.3645833333335" y1="0" x2="1205.3645833333335" y2="5" style="visibility: inherit;" fill="rgb(0, 0, 0)" stroke="rgb(204, 204, 204)" stroke-width="1px"></line><line x1="1325.9010416666665" y1="0" x2="1325.9010416666665" y2="5" style="visibility: inherit;" fill="rgb(0, 0, 0)" stroke="rgb(204, 204, 204)" stroke-width="1px"></line><line x1="1446.4375" y1="0" x2="1446.4375" y2="5" style="visibility: inherit;" fill="rgb(0, 0, 0)" stroke="rgb(204, 204, 204)" stroke-width="1px"></line></g><g transform="translate(0, 8)"><text x="0" y="0" dx="0em" dy="0.95em" style="text-anchor: middle; visibility: hidden; font-family: Roboto, sans-serif; font-size: 12px; font-weight: 200;" fill="rgb(255, 255, 255)" stroke="none" stroke-width="1px">-10</text><text x="120.53645833333333" y="0" dx="0em" dy="0.95em" style="text-anchor: middle; visibility: inherit; font-family: Roboto, sans-serif; font-size: 12px; font-weight: 200;" fill="rgb(255, 255, 255)" stroke="none" stroke-width="1px">0</text><text x="241.07291666666666" y="0" dx="0em" dy="0.95em" style="text-anchor: middle; visibility: inherit; font-family: Roboto, sans-serif; font-size: 12px; font-weight: 200;" fill="rgb(255, 255, 255)" stroke="none" stroke-width="1px">10</text><text x="361.609375" y="0" dx="0em" dy="0.95em" style="text-anchor: middle; visibility: inherit; font-family: Roboto, sans-serif; font-size: 12px; font-weight: 200;" fill="rgb(255, 255, 255)" stroke="none" stroke-width="1px">20</text><text x="482.1458333333333" y="0" dx="0em" dy="0.95em" style="text-anchor: middle; visibility: inherit; font-family: Roboto, sans-serif; font-size: 12px; font-weight: 200;" fill="rgb(255, 255, 255)" stroke="none" stroke-width="1px">30</text><text x="602.6822916666667" y="0" dx="0em" dy="0.95em" style="text-anchor: middle; visibility: inherit; font-family: Roboto, sans-serif; font-size: 12px; font-weight: 200;" fill="rgb(255, 255, 255)" stroke="none" stroke-width="1px">40</text><text x="723.21875" y="0" dx="0em" dy="0.95em" style="text-anchor: middle; visibility: inherit; font-family: Roboto, sans-serif; font-size: 12px; font-weight: 200;" fill="rgb(255, 255, 255)" stroke="none" stroke-width="1px">50</text><text x="843.7552083333334" y="0" dx="0em" dy="0.95em" style="text-anchor: middle; visibility: inherit; font-family: Roboto, sans-serif; font-size: 12px; font-weight: 200;" fill="rgb(255, 255, 255)" stroke="none" stroke-width="1px">60</text><text x="964.2916666666666" y="0" dx="0em" dy="0.95em" style="text-anchor: middle; visibility: inherit; font-family: Roboto, sans-serif; font-size: 12px; font-weight: 200;" fill="rgb(255, 255, 255)" stroke="none" stroke-width="1px">70</text><text x="1084.828125" y="0" dx="0em" dy="0.95em" style="text-anchor: middle; visibility: inherit; font-family: Roboto, sans-serif; font-size: 12px; font-weight: 200;" fill="rgb(255, 255, 255)" stroke="none" stroke-width="1px">80</text><text x="1205.3645833333335" y="0" dx="0em" dy="0.95em" style="text-anchor: middle; visibility: inherit; font-family: Roboto, sans-serif; font-size: 12px; font-weight: 200;" fill="rgb(255, 255, 255)" stroke="none" stroke-width="1px">90</text><text x="1325.9010416666665" y="0" dx="0em" dy="0.95em" style="text-anchor: middle; visibility: inherit; font-family: Roboto, sans-serif; font-size: 12px; font-weight: 200;" fill="rgb(255, 255, 255)" stroke="none" stroke-width="1px">100</text><text x="1446.4375" y="0" dx="0em" dy="0.95em" style="text-anchor: middle; visibility: hidden; font-family: Roboto, sans-serif; font-size: 12px; font-weight: 200;" fill="rgb(255, 255, 255)" stroke="none" stroke-width="1px">110</text></g><line x1="0" y1="0" x2="1446.4375" y2="0" fill="rgb(0, 0, 0)" stroke="rgb(204, 204, 204)" stroke-width="1px"></line></g></g></g></g></svg>